<svg xmlns="http://www.w3.org/2000/svg" viewBox="0 0 358.11 412.99"><defs><style>.cls-1{isolation:isolate;}.cls-2{fill:#1c252f;}.cls-3{fill:#132c4a;}.cls-4{fill:#415998;}.cls-5{fill:#e31c3d;}.cls-6{fill:#c51f40;}.cls-7{fill:#07548e;}.cls-8{fill:#614d86;}.cls-9{fill:#0c4170;}.cls-10{fill:#134363;}.cls-11{fill:#1f2328;}.cls-12{fill:#c3284f;}.cls-13{fill:#1c2c37;}.cls-14{fill:#0f3860;}.cls-15{fill:#fff;opacity:0.1;}.cls-16{mix-blend-mode:multiply;}.cls-17{fill:#212121;opacity:0.13;}</style></defs><title>system-hero-1</title><g class="cls-1"><g id="Layer_2" data-name="Layer 2"><g id="Layer_1-2" data-name="Layer 1"><polygon class="cls-2" points="358.09 103.41 179.37 0.22 0.61 103.42 0.61 309.79 179.36 412.98 358.11 309.79 358.09 103.41"/><polygon class="cls-3" points="179.35 412.99 89.99 361.39 179.36 309.79 268.72 361.39 179.35 412.99"/><polygon class="cls-3" points="179.35 103.41 89.99 51.82 179.36 0.22 268.72 51.81 179.35 103.41"/><polygon class="cls-3" points="313.41 129.2 179.37 51.81 45.3 129.21 45.3 283.99 179.36 361.39 313.42 283.99 313.41 129.2"/><polygon class="cls-4" points="268.72 155 179.36 103.41 89.98 155.01 89.98 258.19 179.36 309.79 268.73 258.19 268.72 155"/><polygon class="cls-5" points="224.04 232.4 224.04 180.81 179.36 206.6 179.36 258.2 224.04 232.4"/><polygon class="cls-6" points="134.67 232.4 134.67 180.81 179.36 206.6 179.36 258.2 134.67 232.4"/><polygon class="cls-7" points="134.67 180.8 134.67 129.21 89.98 155.01 89.98 206.6 134.67 180.8"/><polygon class="cls-7" points="89.98 258.2 89.98 206.6 134.67 232.4 134.67 284 89.98 258.2"/><polygon class="cls-8" points="179.35 155.01 134.67 129.21 179.36 103.41 224.04 129.21 179.35 155.01"/><polygon class="cls-9" points="89.98 155.01 45.3 129.21 89.99 103.41 134.67 129.21 89.98 155.01"/><polygon class="cls-9" points="89.98 309.79 45.3 284 89.99 258.2 134.67 283.99 89.98 309.79"/><polygon class="cls-9" points="268.73 155.01 224.05 129.21 268.73 103.41 313.41 129.21 268.73 155.01"/><polygon class="cls-9" points="268.73 309.79 224.05 284 268.73 258.2 313.41 283.99 268.73 309.79"/><polygon class="cls-10" points="179.35 103.41 134.67 77.62 179.36 51.82 224.04 77.61 179.35 103.41"/><polygon class="cls-11" points="179.35 51.82 134.67 26.02 179.36 0.22 224.04 26.02 179.35 51.82"/><polygon class="cls-8" points="179.35 309.79 134.67 284 179.36 258.2 224.04 283.99 179.35 309.79"/><polygon class="cls-10" points="179.35 361.39 134.67 335.59 179.36 309.79 224.04 335.59 179.35 361.39"/><polygon class="cls-11" points="179.35 412.99 134.67 387.19 179.36 361.39 224.04 387.19 179.35 412.99"/><polygon class="cls-7" points="224.04 180.8 224.04 129.21 268.73 155.01 268.73 206.6 224.04 180.8"/><polygon class="cls-7" points="268.73 258.2 268.73 206.6 224.04 232.4 224.04 284 268.73 258.2"/><polygon class="cls-12" points="179.35 206.6 134.67 180.81 179.36 155.01 224.04 180.8 179.35 206.6"/><polygon class="cls-13" points="0.61 206.6 0.61 103.42 89.99 155.02 0.61 206.6"/><polygon class="cls-13" points="0.61 309.79 0.61 206.6 89.99 258.2 0.61 309.79"/><polygon class="cls-13" points="358.11 206.6 358.11 309.79 268.73 258.19 358.11 206.6"/><polygon class="cls-13" points="358.11 103.42 358.11 206.6 268.73 155 358.11 103.42"/><polygon class="cls-14" points="45.3 180.8 45.3 129.21 89.99 155.01 89.99 206.6 45.3 180.8"/><polygon class="cls-14" points="89.99 258.2 89.99 206.6 45.3 232.4 45.3 284 89.99 258.2"/><polygon class="cls-14" points="313.42 180.8 313.42 129.21 268.73 155.01 268.73 206.6 313.42 180.8"/><polygon class="cls-14" points="268.73 258.2 268.73 206.6 313.42 232.4 313.42 284 268.73 258.2"/><polygon class="cls-15" points="358.09 309.77 358.09 103.42 179.36 206.61 179.36 412.96 358.09 309.77"/><polygon class="cls-15" points="313.41 283.99 313.41 129.22 179.35 206.62 179.35 361.39 313.41 283.99"/><g class="cls-16"><polygon class="cls-17" points="178.71 206.38 0 103.2 178.73 0.01 357.44 103.18 178.71 206.38"/><polygon class="cls-17" points="178.73 154.79 44.69 77.4 178.74 0.01 312.78 77.39 178.73 154.79"/><polygon class="cls-17" points="178.72 103.21 89.34 51.61 178.73 0 268.11 51.6 178.72 103.21"/></g></g></g></g></svg>