<?xml version="1.0" encoding="UTF-8"?>
<svg width="22px" height="22px" viewBox="0 0 22 22" version="1.1" xmlns="http://www.w3.org/2000/svg" xmlns:xlink="http://www.w3.org/1999/xlink">
    <!-- Generator: Sketch 52.6 (67491) - http://www.bohemiancoding.com/sketch -->
    <title>times-circle</title>
    <desc>Created with Sketch.</desc>
    <g id="Page-1" stroke="none" stroke-width="1" fill="none" fill-rule="evenodd">
        <g id="Artboard" transform="translate(-893.000000, -740.000000)" fill="#E31C3D" fill-rule="nonzero">
            <g id="times-circle" transform="translate(893.000000, 740.000000)">
                <path d="M11,0 C4.9233871,0 0,4.9233871 0,11 C0,17.0766129 4.9233871,22 11,22 C17.0766129,22 22,17.0766129 22,11 C22,4.9233871 17.0766129,0 11,0 Z M16.3935484,13.8875 C16.6020161,14.0959677 16.6020161,14.4330645 16.3935484,14.6415323 L14.6370968,16.3935484 C14.428629,16.6020161 14.0915323,16.6020161 13.8830645,16.3935484 L11,13.483871 L8.1125,16.3935484 C7.90403226,16.6020161 7.56693548,16.6020161 7.35846774,16.3935484 L5.60645161,14.6370968 C5.39798387,14.428629 5.39798387,14.0915323 5.60645161,13.8830645 L8.51612903,11 L5.60645161,8.1125 C5.39798387,7.90403226 5.39798387,7.56693548 5.60645161,7.35846774 L7.36290323,5.60201613 C7.57137097,5.39354839 7.90846774,5.39354839 8.11693548,5.60201613 L11,8.51612903 L13.8875,5.60645161 C14.0959677,5.39798387 14.4330645,5.39798387 14.6415323,5.60645161 L16.3979839,7.36290323 C16.6064516,7.57137097 16.6064516,7.90846774 16.3979839,8.11693548 L13.483871,11 L16.3935484,13.8875 Z" id="Shape"></path>
            </g>
        </g>
    </g>
</svg>