<?xml version="1.0" encoding="UTF-8"?>
<svg width="18px" height="15px" viewBox="0 0 18 15" version="1.1" xmlns="http://www.w3.org/2000/svg" xmlns:xlink="http://www.w3.org/1999/xlink">
    <title>Icons / Font Awesome / fa-check</title>
    <g id="----Process-List" stroke="none" stroke-width="1" fill="none" fill-rule="evenodd">
        <g id="Process-List-/-_elements-/-number-/-complete-" transform="translate(-11.000000, -12.000000)" fill="#2E8540">
            <g id="Icons-/-Font-Awesome-/-fa-check" transform="translate(11.000000, 12.250000)">
                <path d="M18,2.69419355 C18,2.98451613 17.883871,3.27483871 17.6748387,3.48387097 L7.68774194,13.4709677 C7.47870968,13.68 7.1883871,13.796129 6.89806452,13.796129 C6.60774194,13.796129 6.31741935,13.68 6.1083871,13.4709677 L0.32516129,7.68774194 C0.116129032,7.47870968 0,7.1883871 0,6.89806452 C0,6.60774194 0.116129032,6.31741935 0.32516129,6.1083871 L1.90451613,4.52903226 C2.11354839,4.32 2.40387097,4.20387097 2.69419355,4.20387097 C2.98451613,4.20387097 3.27483871,4.32 3.48387097,4.52903226 L6.89806452,7.95483871 L14.516129,0.32516129 C14.7251613,0.116129032 15.0154839,-1.77635684e-15 15.3058065,-1.77635684e-15 C15.596129,-1.77635684e-15 15.8864516,0.116129032 16.0954839,0.32516129 L17.6748387,1.90451613 C17.883871,2.11354839 18,2.40387097 18,2.69419355 Z" id="icon"></path>
            </g>
        </g>
    </g>
</svg>