<svg xmlns="http://www.w3.org/2000/svg" fill="none" viewBox="0 0 200 50"><g clip-path="url(#a)"><path fill="#fff" d="M76.221 3.68c-11.642 0-21.109 9.44-21.109 21.11s9.44 21.109 21.11 21.109c11.642 0 21.108-9.44 21.108-21.11 0-11.669-9.466-21.108-21.109-21.108Zm38.266 10.889h-.365l-.365.112-.253.253-.112.477-.056.73v5.083c-.59 1.067-1.601 1.684-2.977 1.684s-2.33-.59-2.864-1.684v-6.178l-.112-.365-.365-.112h-.477l-.057-.056V14.4l.057-.056h.645l.955.056.955-.056h.646l.056.056v.113l-.056.056h-.478l-.365.112-.112.365v5.785c0 .786.898 1.488 1.965 1.488 1.067 0 2.078-.73 2.078-1.488v-4.718l-.056-.73-.112-.477-.253-.253-.365-.112h-.365l-.056-.056v-.113l.056-.056h.534l.842.056.842-.056h.534l.056.056v.197Zm.758 8.227a.827.827 0 0 1-.842-.842c0-.478.365-.843.842-.843.478 0 .843.365.843.843 0 .505-.365.842-.843.842Zm4.465.084c-.899 0-1.432-.168-1.91-.646h-.056l-.477.478h-.141l-.056-.056-.112-2.696.056-.112h.169l.056.112.224.646c.478 1.32 1.208 1.965 2.078 1.965h.113c.954 0 1.684-.702 1.684-1.684 0-.899-.589-1.545-1.909-2.022-1.713-.618-2.331-1.32-2.331-2.5 0-1.207 1.067-2.217 2.696-2.217.646 0 1.264.252 1.601.59h.056l.421-.422h.112l.056.056v2.218l-.056.113h-.168l-.056-.113-.225-.645c-.309-.899-1.011-1.489-1.741-1.489h-.056c-.899 0-1.488.59-1.488 1.489 0 .842.421 1.235 1.909 1.74 1.601.534 2.331 1.376 2.331 2.64.028 1.46-1.123 2.555-2.78 2.555Zm4.24-.084a.827.827 0 0 1-.843-.842c0-.478.365-.843.843-.843.477 0 .842.365.842.843-.028.505-.365.842-.842.842Zm7.862-.112h-.73l-1.432-.056-.955.056h-.702l-.056-.056v-.113l.056-.056h.534l.365-.112.112-.365v-6.936l-.112-.365-.365-.112h-.478l-.056-.056V14.4l.056-.056h.646l.955.056 1.432-.056h.73c2.274 0 3.931 1.685 3.931 3.931v.253c.028 2.247-1.769 4.156-3.931 4.156Zm-.281-8.059h-.73l-.365.112-.112.253v7.048l.112.253.365.112h.73c1.797 0 2.808-1.432 2.808-3.875 0-2.47-1.011-3.903-2.808-3.903Zm9.884 4.885h-3.706l-.056.113v.421c0 1.432.589 2.275 1.684 2.275.843 0 1.488-.59 1.685-1.545l.056-.056h.113c.112 0 .252.113.252.31-.309 1.122-1.123 1.796-2.274 1.796-1.685 0-2.808-1.067-2.808-2.864v-.14c0-1.741 1.207-2.977 2.808-2.977 1.376 0 2.274 1.011 2.33 2.64l-.084.028Zm-2.387-2.386c-.786 0-1.263.786-1.347 2.078h2.414l.113-.112c0-1.292-.421-1.966-1.18-1.966Zm6.459 5.672c-.786 0-1.208-.168-1.685-.73v2.864l.112.253.365.112h.422l.056.056v.113l-.056.056h-.59l-.899-.056-.898.056h-.534l-.056-.056v-.113l.056-.056h.365l.365-.112.113-.253v-7.385l-.113-.253-.365-.112h-.309l-.056-.056v-.112l.056-.056h1.91l.056.056v1.01c.365-.73 1.067-1.179 1.797-1.179 1.432 0 2.387 1.123 2.387 2.864 0 1.797-1.011 3.09-2.499 3.09Zm-.253-5.42c-.59 0-1.123.478-1.432 1.32v2.752c.365.646.786.899 1.376.899.898 0 1.488-.955 1.488-2.5 0-1.628-.477-2.47-1.432-2.47Zm7.89 5.42c-.533 0-.955-.421-1.067-1.067-.309.646-.955 1.067-1.741 1.067-1.011 0-1.685-.59-1.685-1.488 0-1.123 1.011-1.741 2.977-1.741h.309l.056-.056v-1.432c-.141-.534-.534-.843-1.067-.843-.365 0-.73.14-.955.365v.843c-.112.309-.365.477-.646.477-.365 0-.533-.168-.533-.533 0-.73 1.179-1.545 2.387-1.545h.056c.954 0 1.684.422 1.965 1.18v3.875l.113.224.168.169.253.056.365-.113h.112l.056.057v.112c-.281.28-.646.393-1.123.393Zm-1.151-2.864-.056-.056h-.309c-1.123 0-1.797.505-1.797 1.376 0 .617.365 1.01.954 1.01.534 0 .955-.308 1.208-.898v-1.432Zm6.346-1.292a.56.56 0 0 1-.534-.477v-.056l.421-.421a.371.371 0 0 0-.365-.365c-.477 0-.898.73-1.123 2.021v2.752l.113.225.365.112h.477l.056.056v.113l-.056.056h-.674l-.898-.056-.899.056h-.534l-.056-.056v-.113l.056-.056h.365l.366-.112.112-.225v-4.436l-.112-.366-.366-.112h-.308l-.057-.056v-.112l.057-.056h1.797l.056.056v1.6c.253-1.207.73-1.797 1.488-1.797.59 0 .955.393.955.955.028.505-.281.87-.702.87Zm3.257 4.156c-.73 0-1.207-.309-1.488-.898v-4.521l-.056-.056h-.786l-.057-.057v-.112l.057-.056.73-.112.112-.113.253-1.207.112-.112.73-.365.112.112v1.6l.057.056h1.488l.056.057v.252l-.056.057h-1.488l-.057.056v4.015c0 .646.169 1.011.59 1.011.393 0 .59-.309.59-.842v-.787l.056-.056c.168 0 .365.169.365.478v.308c-.028.759-.562 1.292-1.32 1.292Zm11.485-.112h-.478l-.898-.056-.899.056h-.477l-.056-.056v-.113l.056-.056h.309l.365-.112.112-.225v-4.1c-.168-.42-.477-.59-.898-.59-.534 0-1.067.478-1.404 1.32v3.342l.112.225.365.112h.309l.056.056v.113l-.056.056h-.449l-.899-.028-.898.056h-.478l-.056-.056v-.113l.056-.056h.309l.365-.112.112-.225v-4.1c-.168-.42-.477-.59-.898-.59-.534 0-1.067.478-1.404 1.32v3.342l.112.225.365.112h.309l.056.056v.113l-.056.056h-.449l-.899-.056-.898.056h-.534l-.056-.056v-.113l.056-.056h.365l.365-.112.113-.225v-4.549l-.113-.253-.365-.112h-.309l-.056-.056v-.112l.056-.056h1.882l.056.056v1.123c.449-.843 1.151-1.32 1.881-1.32s1.32.477 1.545 1.32c.421-.843 1.123-1.32 1.853-1.32.786 0 1.432.477 1.657 1.264v4.015l.112.225.365.112h.337l.056.056v.113l-.084.084Zm5.391-3.174h-3.706l-.056.113v.421c0 1.432.589 2.275 1.684 2.275.843 0 1.489-.59 1.685-1.545l.056-.056h.113c.112 0 .252.113.252.31-.309 1.122-1.123 1.796-2.274 1.796-1.685 0-2.808-1.067-2.808-2.864v-.14c0-1.741 1.207-2.977 2.808-2.977 1.376 0 2.274 1.011 2.331 2.64l-.085.028Zm-2.386-2.386c-.787 0-1.264.786-1.348 2.078h2.415l.112-.112c.028-1.292-.393-1.966-1.179-1.966Zm9.266 5.56h-.534l-.898-.056-.899.056h-.533l-.056-.056v-.113l.056-.056h.365l.365-.112.112-.225V18.08c-.112-.393-.477-.646-.898-.646-.646 0-1.18.477-1.489 1.376v3.285l.113.225.365.112h.365l.056.056v.113l-.056.056h-.534l-.926-.028-.899.056h-.533l-.057-.056v-.113l.057-.056h.365l.365-.112.112-.225v-4.577l-.112-.253-.365-.112h-.309l-.056-.056v-.112l.056-.056h1.909l.056.056v1.123c.478-.899 1.123-1.32 1.966-1.32.786 0 1.376.477 1.6 1.264v4.015l.113.225.365.112h.365l.056.056v.113l-.028.084Zm2.218.112c-.73 0-1.208-.309-1.488-.898v-4.521l-.057-.056h-.786l-.056-.057v-.112l.056-.056.73-.112.113-.113.252-1.207.113-.112.73-.365.112.112v1.6l.056.056h1.488l.057.057v.252l-.057.057h-1.488l-.056.056v4.015c0 .646.169 1.011.59 1.011.393 0 .589-.309.589-.842v-.787l.057-.056c.168 0 .365.169.365.478v.308c-.028.759-.562 1.292-1.32 1.292Zm-78.145 12.243c-1.601 0-2.696-1.123-2.696-2.808v-.113c0-1.797 1.207-3.06 2.808-3.06 1.6 0 2.696 1.123 2.696 2.808v.112c0 1.825-1.208 3.06-2.808 3.06Zm.056-5.672c-.955 0-1.432.898-1.432 2.695 0 1.797.477 2.696 1.432 2.696.954 0 1.432-.899 1.432-2.696 0-1.797-.478-2.695-1.432-2.695Zm6.935-1.657c-.365 0-.589-.225-.589-.59v-.056l.421-.421c-.168-.253-.421-.365-.73-.365-.506 0-.899.477-.899 1.123v1.741l.057.056h1.263l.056.056v.253l-.056.056h-1.263l-.057.056v4.718l.113.252.365.113h.533l.056.056v.112l-.056.056h-.646l-.954-.056-.955.056h-.477l-.057-.056v-.112l.057-.056h.365l.365-.113.112-.252v-4.718l-.056-.056h-.786l-.057-.056v-.14l.057-.056.73-.113.112-.112v-1.32c.253-1.067 1.067-1.797 2.022-1.797h.056c.842 0 1.488.477 1.488 1.123 0 .31-.309.618-.59.618Zm9.266-.898h-.365l-.365.168-.309.309-.168.337-2.443 7.3-.112.057h-.365l-.141-.056-2.555-7.694-.309-.31-.337-.111h-.365l-.056-.057v-.14l.056-.056h.59l.955.056.954-.056h1.011l.056.056v.14l-.056.057h-.533l-.337.112-.141.224v.197l1.853 5.56.057.224.056-.224 1.685-5.335v-.281l-.113-.253-.14-.112-.337-.112h-.477l-.057-.057v-.14l.057-.056h.758l.73.056.702-.056h.561l.056.056v.14l-.056.057Zm3.96 4.941h-3.707l-.056.113v.421c0 1.432.59 2.274 1.685 2.274.842 0 1.488-.59 1.685-1.544l.056-.056h.112c.112 0 .253.112.253.309-.309 1.123-1.123 1.797-2.275 1.797-1.656 0-2.808-1.067-2.808-2.864v-.113c0-1.74 1.208-2.976 2.808-2.976 1.376 0 2.275 1.01 2.331 2.64h-.084Zm-2.387-2.386c-.786 0-1.264.786-1.348 2.078h2.415l.112-.113c0-1.291-.421-1.965-1.179-1.965Zm4.97 5.672c-.73 0-1.207-.31-1.488-.899v-4.549l-.056-.056h-.786l-.057-.056v-.112l.057-.056.73-.113.112-.112.225-1.207.112-.113.73-.365.112.112v1.601l.056.056h1.489l.056.056v.253l-.056.056h-1.489l-.056.056v4.016c0 .645.169 1.01.59 1.01.393 0 .59-.308.59-.842v-.758l.056-.056c.168 0 .365.168.365.477v.31c.028.757-.506 1.29-1.292 1.29Zm6.851-3.286h-3.706l-.056.113v.421c0 1.432.589 2.274 1.684 2.274.843 0 1.489-.59 1.685-1.544l.056-.056h.113c.112 0 .252.112.252.309-.309 1.123-1.123 1.797-2.274 1.797-1.685 0-2.808-1.067-2.808-2.864v-.113c0-1.74 1.207-2.976 2.808-2.976 1.376 0 2.274 1.01 2.331 2.64h-.085Zm-2.386-2.386c-.787 0-1.264.786-1.348 2.078h2.415l.112-.113c0-1.291-.421-1.965-1.179-1.965Zm6.458 1.488a.56.56 0 0 1-.533-.477v-.057l.421-.42a.372.372 0 0 0-.365-.366c-.478 0-.899.73-1.123 2.022v2.752l.112.253.365.112h.477l.056.056v.112l-.056.056h-.646l-.898-.056-.899.056h-.533l-.056-.056v-.112l.056-.056h.365l.365-.112.112-.253V29.9l-.112-.365-.365-.112h-.309l-.056-.056v-.113l.056-.056h1.797l.056.056v1.601c.225-1.207.702-1.797 1.488-1.797.59 0 .955.393.955.955-.028.505-.337.842-.73.842Zm5.447 4.184c-.533 0-.954-.421-1.067-1.067-.309.646-.954 1.067-1.741 1.067-1.011 0-1.684-.59-1.684-1.488 0-1.124 1.01-1.741 2.976-1.741h.309l.056-.056V30.32c-.14-.533-.534-.842-1.067-.842-.365 0-.73.14-.955.365v.842c-.112.31-.365.478-.646.478-.365 0-.533-.169-.533-.534 0-.73 1.207-1.544 2.387-1.544h.056c.955 0 1.685.421 1.965 1.207v3.847l.113.253.168.169.253.056.365-.113h.112l.056.056v.113c-.28.252-.645.365-1.123.365Zm-1.123-2.864-.056-.056h-.309c-1.123 0-1.797.505-1.797 1.375 0 .618.365 1.011.955 1.011.533 0 .954-.309 1.207-.898v-1.432Zm9.154 2.751h-.533l-.899-.056-.899.056h-.533l-.056-.056v-.112l.056-.056h.365l.365-.112.112-.253V30.32c-.112-.393-.477-.645-.898-.645-.646 0-1.208.477-1.488 1.376v3.285l.112.252.365.113h.365l.056.056v.112l-.056.056h-.534l-.898-.056-.899.056h-.533l-.056-.056v-.112l.056-.056h.365l.365-.112.112-.253v-4.55l-.112-.224-.365-.112h-.309l-.056-.056v-.113l.056-.056h1.909l.057.056v1.124c.477-.899 1.123-1.32 1.965-1.32.786 0 1.376.477 1.629 1.264v4.015l.112.253.365.112h.365l.056.056v.112l-.084.028Zm2.724.113c-.646 0-1.011-.113-1.432-.477h-.056l-.365.364h-.113l-.056-.056-.112-1.965.056-.056h.168l.057.112c.393 1.123 1.067 1.825 1.853 1.825h.056c.646 0 1.123-.421 1.123-1.039 0-.505-.421-.926-1.432-1.263-1.32-.422-1.797-.955-1.797-1.798 0-.898.786-1.6 2.022-1.6.505 0 .983.168 1.263.45h.057l.336-.338h.085l.056.056v1.601l-.056.056h-.169l-.056-.112c-.253-.899-.842-1.46-1.488-1.46h-.056c-.646 0-1.067.393-1.067.982 0 .478.421.843 1.376 1.067 1.207.31 1.853.955 1.853 1.854-.028 1.095-.843 1.797-2.106 1.797Zm12.664-.112h-.534l-.955-.057-.954.057h-.899l-.056-.057v-.112l.056-.056h.421l.365-.112.113-.113.056-.252v-.169l-.73-2.078-.112-.084h-2.752l-.113.084-.589 1.825v.365l.112.253.169.169.365.112h.308l.057.056v.112l-.057.057h-.645l-.73-.057-.731.057h-.477l-.056-.057v-.112l.056-.056h.309l.365-.169.309-.308.168-.366 2.499-7.104.113-.112.421-.056.421-.112.113.112 2.639 7.638.225.365.365.112h.365l.056.056v.112l-.056.057Zm-4.493-7.048-.112-.422-.113.422-1.207 3.622.056.028h2.555l.056-.028-1.235-3.622Zm11.906-.169c-.365 0-.59-.225-.59-.59v-.056l.421-.421c-.168-.253-.421-.365-.73-.365-.505 0-.898.477-.898 1.123v1.741l.056.056h1.264l.056.056v.253l-.056.056h-1.264l-.056.056v4.746l.112.252.365.113h.534l.056.056v.084l-.056.056h-.646l-.955-.056-.955.056h-.477l-.056-.056v-.084l.056-.056h.365l.365-.112.112-.253v-4.746l-.056-.056h-2.162l-.056.056v4.746l.112.252.365.113h.365l.057.056v.084l-.057.056h-.477l-.955-.056-.954.056h-.478l-.056-.056v-.084l.056-.056h.365l.365-.112.113-.253v-4.746l-.056-.056h-.787l-.056-.056v-.14l.056-.056.73-.113.113-.112v-1.208c.309-1.123 1.123-1.797 2.162-1.797.646 0 1.263.31 1.6.787.422-.534 1.124-.899 1.797-.899.843 0 1.489.477 1.489 1.123-.028.31-.309.618-.618.618Zm-2.977-.421c-.252-.534-.645-.843-1.207-.843-.646 0-1.067.478-1.067 1.208v1.488l.056.056h2.162l.056-.056v-1.853Z"/><path fill="#fff" d="M183.591 35.039c-.534 0-.955-.421-1.067-1.067-.309.646-.955 1.067-1.741 1.067-1.011 0-1.685-.59-1.685-1.488 0-1.124 1.011-1.741 2.977-1.741h.308l.057-.056V30.32c-.141-.533-.534-.842-1.067-.842-.365 0-.73.14-.955.365v.842c-.112.31-.365.478-.646.478-.365 0-.533-.169-.533-.534 0-.73 1.207-1.544 2.386-1.544h.056c.955 0 1.685.421 1.966 1.207v3.847l.112.253.169.169.253.056.365-.113h.112l.056.056v.113c-.281.252-.646.365-1.123.365Zm-1.123-2.864-.056-.056h-.309c-1.152 0-1.797.505-1.797 1.375 0 .618.365 1.011.954 1.011.534 0 .955-.309 1.208-.898v-1.432Zm5.559 2.752h-.477l-.955-.057-.955.057h-.477l-.056-.057v-.112l.056-.056h.365l.365-.112.112-.253v-4.549l-.112-.225-.365-.112h-.309l-.056-.056v-.112l.056-.057h1.91l.056.057v5.082l.112.253.365.112h.365l.056.056v.112l-.056.029Zm-1.572-6.936c-.393 0-.702-.337-.702-.73 0-.393.309-.73.702-.73.393 0 .702.337.702.73.028.393-.309.73-.702.73Zm5.756 2.864a.56.56 0 0 1-.533-.477v-.057l.421-.42a.372.372 0 0 0-.365-.366c-.478 0-.899.73-1.123 2.022v2.752l.112.253.365.112h.477l.056.056v.112l-.056.056h-.646l-.898-.056-.899.056h-.533l-.056-.056v-.112l.056-.056h.365l.365-.112.112-.253V29.9l-.112-.365-.365-.112h-.309l-.056-.056v-.113l.056-.056h1.797l.056.056v1.601c.225-1.207.702-1.797 1.488-1.797.59 0 .955.393.955.955 0 .505-.309.842-.73.842Zm3.173 4.184c-.646 0-1.011-.113-1.432-.477h-.056l-.365.364h-.113l-.056-.056-.112-1.965.056-.056h.169l.056.112c.393 1.123 1.067 1.825 1.853 1.825h.056c.646 0 1.123-.421 1.123-1.039 0-.505-.421-.926-1.432-1.263-1.319-.422-1.797-.955-1.797-1.798 0-.898.786-1.6 2.022-1.6.505 0 .983.168 1.264.45h.056l.337-.338h.084l.056.056v1.601l-.056.056h-.169l-.056-.112c-.252-.899-.842-1.46-1.488-1.46h-.056c-.646 0-1.067.393-1.067.982 0 .478.421.843 1.376 1.067 1.207.31 1.853.955 1.853 1.854 0 1.095-.842 1.797-2.106 1.797ZM45.243 9.206h-.393v31.449h.393V9.205ZM8.683 34.955 2 13.698h5.167l2.527 8.986c.702 2.555 1.348 4.942 1.853 7.61h.084c.534-2.556 1.18-5.083 1.882-7.498l2.667-9.098h4.998l-7.02 21.257H8.684Zm15.416-5.448-1.489 5.448h-4.83l6.32-21.257h6.177l6.487 21.257H31.68l-1.6-5.448h-5.981Zm5.279-3.594-1.292-4.521c-.365-1.264-.73-2.836-1.039-4.1h-.056c-.309 1.264-.618 2.864-.955 4.1l-1.235 4.52h4.577Z"/><path fill="#112E51" d="M81.381 27.738c.028.477 0 1.095.674 1.629.477.393.505 1.01.505 1.01.225.029.31.029.59.029.59.028.393.645-.084.758.056.28-.281.393-.421.42 0 0 0 .282-.478.282-.028.14-.309.28-.618.196 0 0-.112.31-.59.225 0 0-.364.253-.701-.056 0 0-.337.365-.786-.113-.45-.505-.955-1.432-1.573-1.769l-1.516 1.152a.83.83 0 0 0-.056-.281l.954-.73c-.14-.365-.084-.59-.084-.59s.309 0 .786.309c.422-.056.506-.45.506-.87 0-.281.14-.59.477-.534-.618-.365-1.235-1.264-2.05-2.106l-.59-.59a5.453 5.453 0 0 0-.814-.59c.14.057.253.085.365.17-.42-.422-.814-.815-1.01-1.068-.674-.786-2.247-1.067-3.623-.983l.028.028c-1.01.085-1.965.674-2.302 1.517-.028.056.112.196.084.28.534-.954 1.657-1.656 3.96-1.403 0 0-.029.196-.141.393.28.758.224 1.235-.309 1.769-.28.309-.562.309-.702.646a2.281 2.281 0 0 0-1.263-.169c-.057 0-.085.112-.113.169 0 0 .955-.085 1.657.73.983 1.095 1.853 1.179 1.853 1.179s.253.084.365.618c.028.224.056.393.197.617-.169.169-.534.506-.674.506-.478.028-.534.028-.814.309-.281.28-.674.674-.646.898 0 .085.028.14.056.197-.534.337-.927.73-.646.927.309.196 1.01.28.898.898a8.282 8.282 0 0 1-.786.225c-.084-.253-.337-.45-.561-.534-.281-.084.112-.561-.422-1.095-.533-.562.281-.758.843-.955.562-.196-.112-.73 1.572-1.067l-.786-.814c-1.993.421-1.151 1.18-2.359 1.713-.645.28-.365 1.067.197 1.516.421.337.337.758.337.899 0 .14.533.112.562.477a6.576 6.576 0 0 1-.73.112c-.113-.477-.562-.477-.618-.673-.14-.618-.59-.927-.618-1.152-.056-.224.112-.28.112-1.123 0-.842.45-.505.59-1.067.14-.562.618-1.18 1.853-1.46l-.842-.87c-.365.168-1.32.59-1.516 1.095-.169.533-.955.28-.787 1.965-1.067-1.46-.42-1.404-.393-2.218.028-.702.815-.87.815-.87-.815-.871-.197-1.798-.197-1.798-.028-.196 0-.365 0-.365l-5.7-5.925c-.113.73.112 1.292.028 2.163-.056.59-.477 1.32-.28 2.414.505 3.09-1.068 2.247 1.375 7.105.674 1.347.898.702 2.19 2.639.899 1.376 2.78 1.404 3.426 1.235.73.253 1.544.169 2.611-.42-.617.505-.617.364-.954.842-.506.73-.169 1.797-.281 2.47.28-.168 1.376-.814 1.628-.898 0 0 .029-.196.056-.674.029-.533.478-.449.534-.449.225.028.393.14.365.562-.028.42-.197 2.05-.197 2.05-.308.084-.87-.085-.87-.085v.14c-.028.225.87.31 1.123.197 0 0 .084-.786.084-.983.197.365.337.478.759.674.196-.28.533-.646 1.01-.786 0 0 0-.084.029-.225.028-.73 1.123-1.432 1.235-1.853l.28.393c-.14 1.18-1.487 1.18-1.824 2.949.365.28.533.561.59.645.505-1.432 1.88-1.853 2.133-3.734-.561-.477-1.038-1.123-1.432-1.797.113 1.235.056 1.067-.898 1.91 0-.815.084-1.012.168-1.096.478-.562.506-1.151.31-1.544a8.185 8.185 0 0 1-.478-1.04c.421.394 1.404 2.275 2.33 3.117.955.927 2.808.366 3.735.618.927.253 4.156-1.01 4.746-3.229.336-1.291.898-1.825 1.32-2.611.308-.59.56-1.292.589-2.584.084-4.549.87-3.229.898-6.29l-8.255 6.15Z"/><path fill="#112E51" d="M69.98 28.047c-.701-.169-1.207-1.039-.814-1.685.506.309.787.169 1.292-.112.45-.253.842-.253.898 0-.477.224-1.066.898-1.123 1.46-.252-.45.056-1.123.365-1.264-.898.31-.954 1.095-.617 1.6Z"/><path fill="#112E51" d="M70.627 25.716a1.52 1.52 0 0 1 .308-.168c-.674-.14-.786.618-1.207.674.197.14.506 0 .646-.169.168 0 .421-.14.253-.337Zm-7.386-6.514c.14-.112.337.028.393-.084.085-.169-.112-.31-.42-.31-.282-.027-.534-.364-.618-.308-.14.084.224.393.252.674.028.224.14.505.31.421.111-.084-.029-.28.083-.393Zm26.479 1.741c-.112-.112-.308-.028-.365-.14-.056-.169.169-.281.478-.253.28.028.59-.281.674-.197.112.112-.281.337-.366.618-.056.225-.196.477-.365.365-.112-.056.057-.253-.056-.393Zm-15.611 9.743-3.173-3.313.224-.084 3.173 3.313-.224.084Z"/><path fill="#112E51" d="m69.11 25.464-6.009-6.262.14-.169 5.953 6.206-.084.225Zm10.193 3.538 10.586-8.031-.14-.169-10.643 8.06.197.14Z"/><path fill="#fff" d="M70.233 27.71c-.28-.505.14-1.151.365-1.264-.449.14-.673.422-.758.73.113.31.31.478.393.534Z"/><path fill="#112E51" d="M82.083 30.265c-.253-.814-1.151-.758-1.432-1.881 0-.056-.056-.028-.056-.028l-.983.73v.056c1.067.758 2.106 1.067 2.443 1.18.056 0 .056-.029.028-.057Z"/><path fill="#fff" d="M65.516 31.052c.337-.029 1.04.252 1.04.252s.645.955.757 1.32c.59 1.994 1.994 1.151 2.275 1.769-.843.393-1.91.337-2.864-1.432-.534-.955-.927-1.151-1.208-1.91Zm2.162.477c.14.337.169.842.253.954.112.14.927 1.068 1.376 1.292 0-.842-.786-2.106-1.629-2.246Zm-3.06-8.564s-.113.308-.113.393c-.056-.028-.252-.028-.337-.056 0 .084.31.308.281.365-.028.056-.14.196-.056.42 0 0 .14-.224.253-.252 0 0 .084.168.224.225l-.028-.337s.085-.197.197-.225c0 0-.112-.112-.28-.14l-.141-.393Zm-.647 1.937s-.028.225-.028.393c0 0-.224-.112-.337-.14l.253.421s-.028.28 0 .45c0 0 .14-.141.197-.17l.224.253s-.028-.308-.056-.42c0 0 .112-.085.225-.085l-.309-.197-.169-.505Zm.422 1.769-.028.28-.337.113s.028.056.224.056c0 0 .085.028.113.085.028.056-.028.365 0 .561 0 0 .112-.28.168-.28 0 0 .113.14.225.168 0 0-.028-.197-.056-.28 0 0 .056-.085.196-.085 0 0 .056-.028-.028-.084-.056-.056-.28-.197-.28-.197s-.113-.253-.197-.337Zm.14 2.106.365.084.14.534s.113-.169.141-.309c0 0 .225.084.309.084-.056-.196-.253-.393-.253-.393s.028-.28.112-.365c-.14-.056-.196.084-.308.084l-.253-.308.028.393c0-.056-.225.112-.28.196Zm1.46.533-.056.31H65.6l.309.196s-.084.197-.084.309c0 0 .252-.169.28-.169 0 0 .057 0 .169.14.056.085.197.113.197.113s-.057-.084-.057-.168c-.028-.085-.084-.169-.084-.169s.112-.14.197-.14c0 0-.028-.056-.365-.084l-.169-.337Zm.787.815.028.197-.197-.028s.085.112.225.168c0 0 .056.253.112.337 0 0 .028-.169.056-.197 0 0 .14.085.225.197.028-.084-.14-.225-.168-.28 0-.029.112-.029.112-.057 0 0-.112-.084-.225-.112.028 0-.14-.253-.168-.225Zm.449-.534h-.28s.168.225.28.281c0 0-.028.28.028.365.028.028.169-.224.225-.224.056.028.28.112.28.112l-.14-.253s.084-.112.14-.196c-.084-.057-.28-.085-.28-.085l-.169-.252-.084.252Zm.505-.421c.029 0-.056-.168-.084-.196 0 0 .028-.113 0-.253 0 0-.056.084-.084.112 0 0-.14-.168-.225-.196 0 0 .085.14.14.252l-.055.057.196.056c-.028-.028.056.168.112.168Zm-.73-1.348s.365.534.534.618c0 0 0-.197-.028-.253 0 0 .112-.028.14-.056.028-.028.169-.028.169-.028s-.056-.056-.31-.112l-.055-.225-.113.169c0-.028-.252-.028-.337-.113Zm.786-.674s0-.28-.084-.42c0 0 .14-.113.169-.225h-.31s-.14-.197-.196-.281c0 0 0 .253-.056.309h-.28s.196.196.28.224c0 0-.084.31-.056.422l.28-.253c0 .028.141.084.253.224Zm-.224-1.375s-.169-.253-.281-.337l.112-.422-.337.169s-.14-.14-.252-.197l.056.337s-.14.113-.225.225c0 0 .197.056.253.084l.056.393s.14-.28.197-.337c.028 0 .28.028.42.085Zm-1.573-1.798s.113.253.113.337c0 0-.197.281-.225.31 0 0 .225 0 .28-.029 0 0 .085.28.113.337 0 0 .084-.225.168-.337a.3.3 0 0 0 .169 0c.112 0 .197.028.197.028s-.14-.196-.31-.337l.029-.449s-.169.14-.225.253c0 .028-.253-.14-.309-.113Zm-.617-1.01s-.028.196 0 .365c0 0-.113.084-.169.168a.756.756 0 0 1-.196.169s.112.084.309.056l.028.393.196-.393s.169.056.253.196c0 0-.028-.309-.084-.449 0 0 .056-.253.253-.337 0 0-.253 0-.366.056 0 0-.14-.224-.196-.252.028 0 .028-.057-.028.028Zm18.925 2.723-.084.365-.337.253.253.112.028.45.168-.365.365-.085-.14-.224.196-.421-.337.168-.112-.253Zm1.517-1.123-.056.253-.31.197.281.168-.056.253.197-.31.309.085-.14-.337.168-.28-.253.083-.14-.112Zm-3.314 2.724-.14.337-.45.168.366.14.056.45.28-.337h.394l-.197-.28.225-.31-.337.056-.197-.224Zm1.292-.056-.056.28-.337.197h.337l-.084.45.196-.422.421-.056-.196-.168.224-.31-.337.141-.168-.112ZM85.48 25.8l-.028.281-.252.169.168.028-.056.112.309-.196.056-.113.14-.224-.252.056-.084-.113Zm-2.302 2.92-.112.422-.338.225h.253l-.056.337.169-.31s.224-.027.308.029l-.14-.253.168-.309-.196.169-.056-.31Zm.197.956-.225.252s.056 0 .056.085c0 .084-.196.308-.196.308l.28-.337s.169.029.337 0l-.224-.14s.337-.197.337-.28c.028-.029-.253.112-.365.112Zm.589.084.281.084.028.253.169-.337.196-.056h-.196l-.14-.31-.085.254-.253.112Zm.956.59v-.338l.308-.252-.365.056.028-.253-.225.31-.224.28.337-.112.14.308Zm-.675-1.938.421-.253.225.225v-.365l.337-.253-.393.028.028-.337-.169.337s-.224 0-.365.084c0 0 .113.029.197.085l-.28.449Zm.786-1.235.253-.113.168.113-.028-.281.281-.197-.253.028.029-.224s-.253.224-.337.42a1.026 1.026 0 0 0-.113.254Zm1.319-1.152.17-.393.392-.196-.337-.029.225-.336s-.337.393-.477.533a1.25 1.25 0 0 1-.281.225l.253-.113.056.31Zm.03.225-.057.28-.365.31.253-.085.084.421.112-.42.281-.029-.14-.196.196-.14-.309.083-.056-.224Zm-2.163 4.52-.197.253-.309.113.197.14-.112.31.28-.254.225.14-.084-.308.337-.197-.31.028-.027-.224Zm-.758 1.096s-.365.252-.421.393l-.225.112.112-.196-.224.028.365-.225.168-.337-.084.309.309-.084Zm-1.516 1.067-.365.168-.393.113.168.056.028.168.28-.196.226-.056c.028-.057-.028-.197.056-.253Zm.449-.506-.225.113-.056.196-.056-.168-.169-.056.197-.085h.309Z"/><path fill="#112E51" d="m84.077 31.81-.113.168-.224.084.112-.168.225-.084Z"/><path fill="#fff" d="m84.582 31.164.196.224s-.168.253-.224.478l.365-.253.224.225.028-.421.394-.281-.337.056s.056-.14-.056-.309l-.225.337-.365-.056Zm1.039-.702.337-.197s.197.14.253.253v-.365l.309-.225-.337-.084.056-.337-.28.337-.338-.056.225.253-.225.42Zm1.179.281.28-.45-.055.394.365.056-.337.28s-.14.31-.056.534l-.281-.309-.393.169.253-.337-.197-.31.421-.027Zm.169-1.208.42-.309s.225.31.366.253l-.14-.477.308-.225-.365.028-.112-.337-.14.422-.422.112.31.14-.225.393Zm-1.179-.449.224-.337.28.14-.112-.337.225-.309-.253.14-.112-.308-.168.421-.281.169.196.028v.393Zm.954-.337.056-.365.365-.225-.309-.028-.028-.365-.168.337-.225-.056.14.28-.14.225.197-.056.112.253Zm.646-.983.337-.224.14.112.056-.225.197-.196h-.225l.028-.337-.224.365-.393.112.28.056-.196.337Zm-.365-.365.084-.309.253-.056-.197-.253.028-.337-.308.394-.253.365.253-.113c.028 0 .056.225.14.31Zm.87-.983-.028-.28.337-.281-.337.056v-.197l-.28.225-.394.112.253.084-.14.366.28-.197c.029 0 .197.084.31.112Zm-.28-.926-.31.112-.055-.225-.113.31-.28.196.196-.028-.056.309.28-.31.225-.055-.112-.14.225-.17Zm-1.825 1.993.084.169-.169.168.225-.056.084.225s0-.225.056-.281c.028-.028.253-.028.253-.028l-.197-.112.056-.253-.224.224-.169-.056Z"/><path fill="#fff" d="m85.368 28.075.056.168-.168.169.225-.056.084.224s.028-.252.056-.28c.028-.057.28-.029.28-.029s-.112-.112-.196-.112c0-.028.056-.252.056-.252l-.252.224-.14-.056Zm-.196.899-.056.196-.14.225.224-.084.196-.31-.112.057-.112-.084Zm2.021-5.364-.14.225-.393.28.337-.027.028.28.224-.28.394.056-.197-.253.225-.253-.337.113-.14-.14Zm-.056 1.657.253-.252.253.28-.14-.449.28-.225-.309.085-.056-.169-.112.225-.225.084.168.084-.112.337Zm-.533-.646.168.197.197-.197-.084.225.112.028-.365.309-.056-.112h-.169l.197-.169v-.28Z"/><path fill="#112E51" d="m87.867 25.323.225-.224s-.14-.028-.225-.085v.31Zm.478-.477.14-.169s.056.085.169.113c0 0-.169.112-.31.056Z"/><path fill="#fff" d="m88.401 24.06-.056.225-.253.056.253.084v.14s.14-.056.168-.224c.029-.169.085-.281.085-.281s-.113.196-.197 0Zm.14-1.488-.14.477-.421.224.336-.056-.084.478.337-.478.534-.112-.31-.056.057-.197-.197.056-.112-.337Z"/><path fill="#112E51" d="M88.738 23.526s0 .253-.084.309l.309-.197c.028-.028-.14.028-.225-.112Z"/><path fill="#fff" d="M79.556 32.624c.45.197.59.421.59.421s-.337.14-.45.478c-.112.308-.702 0-.702.702 0 .224.758.42-.056.645 0 0-.421-.224-.477-.365-.056-.112-.253-.73.14-.954.899-.45.253-.562.955-.927Zm-2.331 1.011c.14.196.562.45.646.477v-.056c.14-.393-.225-.646.028-1.01.253-.338.505.027.646-.73.084-.394.42-.141.365-.394-.084-.393-.899-1.207-.899-1.207s-.617.42-.646.505c0 .084.815.59.73.758-.084.169-.449.112-.42.45 0 .364-.815.084-.45 1.207Zm-6.43 1.291c.842-.224 2.246-.814 2.583-1.01 0 0 .056.337-1.067.842-.898.393-1.32.253-1.516.168Z"/><path fill="#112E51" d="M72.087 35.291c-.281.478-.478 1.18-.393 1.77.084.449.028.673-.169 1.066-.533.366-.59.31-.59.31s.253-.871.337-1.713c.085-.618.422-1.208.815-1.432Z"/><path fill="#fff" d="M86.042 32.68c.028.843-.45.758-.477 1.46-.028.31-1.264 1.04-1.432.787-.197-.253.056-.197.196-.843.113-.45.786-.196 1.095-1.404.337-.028.618 0 .618 0Zm-1.236-.253c-.645.646-.112 1.096-.59 1.264-.476.168-1.543.73-1.094 1.18.449.42-1.18.814-1.011.477.14-.337-.758-.281-.365-.87.393-.59 1.544-.45 1.797-.815.225-.365.14-.674.561-1.32.394-.084.703.084.703.084Z"/><path fill="#fff" d="M83.178 32.54c-.056.561-.28 1.235-1.629 1.46-.786.14-.758.73-.617.814.14.056.028.337-.113.478 0 0-.477-.057-.814-.197 0 0 .253-.28.169-.309-.113-.056-.618-.28.196-.814.814-.534 1.292.421 1.994-.955.28-.365.814-.477.814-.477Zm-8.396 5.194s.562.113.871 0c0 0 .028-1.656.028-2.077 0-.422-.197-.534-.421-.534-.056 0-.506-.028-.478.506v2.105Zm.927-7.272c-.225.14-.73.45-.73.59 0 .168.028.646 0 .786-.056.196-.253.168-.421.196a.59.59 0 0 0 .14-.42c-.028-.17-.197-.478-.393-.282-.225.253-.421.59-.169.702-.252.113-.42-.028-.42-.252 0-.113.112-.31.168-.45.056-.14-.169-.14-.337-.056-.169.084-.421.393-.365.534.028.084.14.14.14.14-.197.113-.45.056-.477-.224-.028-.169 0-.197.14-.337.112-.14.45-.45.506-.506.112-.084.365 0 .561-.084.197-.084.843-.505 1.123-.814l.113.28.42-.056v.253Z"/><path fill="#112E51" d="M82.195 30.967c-.926-.168-1.965-.561-3.088-1.291-.169-.113-.113-.394.056-.281.14.112 1.713 1.207 3.06 1.544.057 0 .028.028-.028.028Zm-1.432.281c-.561-.253-1.123-.59-1.881-1.123-.168-.169 0-.365.14-.253.113.084 1.124 1.011 1.741 1.376.056 0 .056 0 0 0Zm-.814.422c-.45-.394-.59-.619-1.32-1.18-.169-.169.028-.365.14-.253.085.113.702.758 1.18 1.432.056.028.028.028 0 0Z"/><path fill="#fff" d="M73.603 33.438c-.197.113-.168.085-.393.169.14-.225.309-.562-.28-.87-.226-.113-.141-.085.168-.282.084-.056 0 .394.533.45.084 0 .14-.028.14.084 0 .14-.14.197-.168.45Zm.393 2.247a.372.372 0 0 1-.365.365.372.372 0 0 1-.365-.365c0-.197.169-.365.365-.365.197 0 .365.168.365.365Zm1.629-1.011c0 .196-.169.365-.365.393a.372.372 0 0 1-.366-.365c0-.197.169-.393.366-.393.196 0 .365.168.365.365Zm-2.246.59c.168-.225.645.028.561-.478-.168.14-.646 0-.561.477Zm1.571-.927c.141-.281.674-.113.506-.618-.169.169-.702.14-.505.618Zm0-.449c.113-.281.675-.14.45-.618-.14.168-.702.14-.45.617Zm-.055-.422c.112-.28.674-.196.421-.645-.112.168-.674.196-.421.645Zm.393-.814c-.085.169-.394.169-.45.393-.196-.337.085-.449.281-.561.028.084.169.168.169.168Zm-1.798 2.134c.169-.224.646.056.59-.45-.168.113-.646-.055-.59.45Zm.085-.449c.197-.225.646.084.618-.422-.169.085-.646-.112-.618.422Zm.168-.477c.225-.197.646.112.646-.394-.168.113-.618-.112-.646.393Zm.169-.422c.224-.196.617.14.673-.365-.196.084-.645-.14-.673.365Z"/><path fill="#fff" d="M74.108 32.99c.225-.198.646.167.702-.338-.168.084-.617-.168-.702.337Zm.197-.422c.252-.169.617.224.702-.28-.197.055-.618-.225-.702.28Zm1.123-.449c-.197-.029-.337.224-.112.393.168.14.365.028.393-.113-.197.029-.365-.168-.28-.28Zm-1.741.533c-.168.112-.393-.084-.253-.337.113-.197.337-.168.422-.056-.197.084-.281.28-.169.393Zm.393.14c-.168.113-.393-.084-.253-.337.113-.196.31-.168.422-.056-.225.084-.281.31-.169.393Zm1.489-.982c-.197.084-.169.365.112.393.225.028.337-.14.28-.281-.168.112-.392.028-.392-.112Zm-.029-.31c-.14.141.028.394.31.282.196-.085.224-.281.111-.394-.112.197-.337.225-.42.113Zm-.168-.28c-.028.197.224.337.421.112a.237.237 0 0 0-.112-.393c0 .225-.197.365-.31.281Z"/><path fill="#112E51" d="m76.13 17.601-.365-1.067h-1.123l.927-.673-.365-1.068.926.674.899-.674-.337 1.068.898.673h-1.123l-.337 1.067Zm-2.5-1.797-.336-1.095h-1.151l.926-.646-.365-1.067.927.646.898-.646-.337 1.067.899.646h-1.123l-.337 1.095Zm.956-2.948-.365-1.067h-1.123l.926-.646-.365-1.095.927.674.898-.674-.337 1.095.899.646h-1.123l-.337 1.067Zm3.06 0-.337-1.067h-1.123l.899-.646-.337-1.095.898.674.927-.674-.365 1.095.926.646h-1.123l-.365 1.067Zm.955 2.92-.337-1.067h-1.123l.899-.646-.337-1.067.898.646.927-.646-.365 1.067.927.646h-1.124l-.365 1.067Z"/><path fill="#112E51" d="M76.186 3c-12.018 0-21.79 9.744-21.79 21.79s9.744 21.79 21.79 21.79c12.018 0 21.79-9.744 21.79-21.79S88.204 3 76.186 3Zm-.056 37.233c-8.564 0-15.5-6.935-15.5-15.5 0-8.564 6.936-15.5 15.5-15.5s15.5 6.936 15.5 15.5c0 8.565-6.936 15.5-15.5 15.5Z"/><path fill="#fff" d="M59.732 25.688c-.028-.42-.281-.505-.674-.533h-.197c-.112 0-.224.028-.337.028-.365.056-.533.225-.533.561 0 .029 0 .113.056.169.028.028.084.028.112.028l1.348-.056c.056 0 .14 0 .169-.028.056-.056.056-.14.056-.169l.14-.028.056.899h-.14c0-.056 0-.14-.028-.197 0 0 0-.028-.028-.028l-.028-.028h-.085l-1.46.084c-.056 0-.084.028-.084.056-.028.057 0 .113 0 .14v.057h-.14l-.057-.87v-.225c0-.14 0-.225.057-.365.056-.112.112-.225.196-.28a1.02 1.02 0 0 1 .702-.254c.169 0 .365 0 .534.057.196.084.393.224.477.393.084.14.084.365.084.533l-.196.056Zm.224-2.92-.112 1.713h-.14c0-.056.056-.225-.057-.253-.028 0-.056 0-.084-.028l-1.432-.112h-.056a.06.06 0 0 0-.056.056c-.029.056-.029.14-.029.225h-.14l.112-1.713.73.028v.14c-.42.084-.59.197-.617.59 0 .056 0 .112.028.168 0 .028.028.028.056.056a.253.253 0 0 0 .14.029l.534.028c.028-.253-.112-.393-.365-.422v-.14l.983.056v.14c-.281 0-.45.113-.45.366l.618.056c.112 0 .197.028.197-.113 0-.056.028-.084.028-.14.028-.393-.169-.561-.562-.702l.028-.112.646.084Zm-.674-1.208.562.113c.028 0 .168-.056.168-.056.029-.028.057-.197.057-.197l.14.028-.197.983-.14-.028c0-.056.028-.112.028-.14.028-.113-.056-.113-.14-.14l-1.432-.31s-.085.029-.085.057c-.028.056-.028.14-.056.196l-.14-.028s.225-1.095.225-1.123c.056-.169.084-.309.224-.421.14-.113.28-.14.477-.085.506.085.478.59.394.927l-.085.225-.14-.028s.028-.113.028-.14c.056-.31.028-.478-.337-.534-.309-.057-.421.028-.477.309 0 .056-.028.14 0 .196.028.056.084.056.14.056l.674.14h.112Zm.928-3.846c.027-.056.055-.113.083-.197.085-.225.085-.393-.196-.533-.253-.113-.365-.029-.478.168a.398.398 0 0 0-.056.168c0 .057.084.085.113.113l.533.28.14.057.59.28c.028 0 .056.029.084.029.057 0 .085 0 .113-.028a.923.923 0 0 0 .084-.169l.14.056-.42.899-.141-.056c.028-.028.028-.085.056-.14.056-.113 0-.141-.084-.197l-1.18-.534a.298.298 0 0 0-.224-.028c-.056.028-.14.169-.14.169l-.141-.057.421-.898.084-.169a.655.655 0 0 1 .281-.337.546.546 0 0 1 .421 0c.31.14.337.45.225.702.14-.168.309-.224.533-.168 0 0 .31.056.365.084h.029c.112-.084-.085-.196-.169-.252l.056-.113c.056.028.113.056.14.084.197.14.197.337.113.534-.056.112-.112.168-.225.197-.112.028-.196 0-.309-.029l-.168-.056c-.225-.084-.393-.14-.505.056-.029.028-.085.169-.085.169l-.084-.084Zm.476-1.32-.618-.421.87-1.432.675.365-.056.112c-.253-.112-.618-.196-.759.056a.085.085 0 0 0 0 .113c.029.028.057.056.113.056l1.207.73c.084.056.112.056.169 0 .028-.056.084-.113.112-.169l.14.085-.533.87-.14-.084c.028-.056.056-.14.112-.197 0-.028 0-.056-.028-.084-.028-.028-.056-.056-.085-.056l-1.179-.73a.213.213 0 0 0-.112-.056c-.028-.028-.084.028-.084.056-.14.252.112.533.308.702l-.112.084Zm2.724-1.769-.084.112-1.77-.702.984.786c.168.14.337.253.477.028l.112.085-.449.561-.112-.084c.14-.197.056-.28-.112-.45l-.927-.757c-.028-.029-.084-.085-.14-.085-.057 0-.085.085-.113.113l-.028.056-.112-.084.505-.646 1.208.477-.73-1.067.505-.646.112.085-.056.056c-.028.028-.084.084-.056.168.028.056.084.084.14.14l1.067.843c.028 0 .028.028.056.028.085.028.14-.056.169-.084l.056-.056.113.084-.618.758-.113-.084.085-.113c0-.028.028-.028.028-.056s0-.056-.028-.056a.06.06 0 0 0-.056-.056l-1.208-.955 1.095 1.6Zm2.19-2.303-1.263 1.18-.113-.113c.056-.056.197-.14.14-.224 0-.028-.027-.056-.056-.084l-.982-1.04c-.028-.027-.028-.027-.056-.027-.029-.028-.057-.028-.057 0-.056.028-.112.084-.168.14l-.112-.112 1.235-1.152.505.534-.084.084c-.365-.224-.561-.28-.87 0-.056.056-.084.084-.113.14v.057a.389.389 0 0 0 .085.112l.365.393c.196-.168.168-.365.028-.562l.084-.084.73.674-.084.084c-.197-.196-.421-.224-.59-.028l.421.45c.085.084.113.14.225.056.028-.028.084-.056.112-.084.281-.281.253-.506.057-.899l.084-.084.477.59Zm-.393-1.656.618.842c.14.197.253.253.45.112l.083.113-.59.42-.084-.111c.197-.14.169-.225.029-.422l-.73-1.01a.302.302 0 0 0-.31.028l-.084-.113.506-.365 1.572.478-.477-.674c-.14-.197-.253-.225-.421-.113l-.085-.112.59-.421.084.112c-.084.084-.168.169-.084.31a.51.51 0 0 0 .14.196l.871 1.179-.112.084-1.966-.533Zm1.601-.786-.337-.674 1.46-.815.393.646-.112.056c-.169-.224-.45-.477-.702-.337-.028.028-.056.057-.056.085.028.028.028.084.056.112l.702 1.235c.056.085.056.113.168.085l.169-.085.084.14-.899.506-.084-.14c.056-.028.112-.084.197-.112.028 0 .028-.057.028-.085 0-.028-.028-.056-.056-.084l-.674-1.207c-.028-.028-.028-.085-.056-.113a.086.086 0 0 0-.113 0c-.253.14-.168.534-.084.758l-.084.029Zm4.296-.703c.28-.084.225-.42.197-.701-.028-.113-.056-.197-.085-.31-.112-.308-.337-.842-.701-.73-.422.141-.253.703-.14 1.04a2.1 2.1 0 0 0 .28.561c.112.169.28.197.45.14l-.029.14a.838.838 0 0 1-.73-.083 1.164 1.164 0 0 1-.477-.618c-.085-.28-.085-.562.028-.814.112-.225.309-.422.533-.478a.91.91 0 0 1 .758.084c.225.14.394.366.478.618.084.253.084.59-.056.815-.113.252-.31.393-.562.477l.056-.14Zm.954-.196-.028-.14.14-.028c.029 0 .057 0 .057-.029l.028-.028v-.028c0-.028 0-.084-.028-.14l-.28-1.376c0-.056-.029-.112-.085-.112h-.14l-.057.028-.028-.14 1.629-.338.168.73-.112.029c-.169-.365-.337-.534-.702-.45-.084.028-.14.028-.197.085-.028.028 0 .112 0 .14l.113.561c.28-.056.309-.196.309-.477l.14-.028.197.955-.14.028c-.029-.056-.057-.14-.085-.197-.112-.168-.197-.196-.365-.168h-.028l.112.618c.028.14.028.168.169.14l.168-.028.028.14-.983.253Zm2.724-2.499.927-.028v.14c-.056 0-.169 0-.225.056 0 .028 0 .085.028.113l.421 1.151.365-1.039c0-.028.029-.056.029-.112 0-.14-.14-.169-.253-.169v-.14l.73-.028v.14c-.197.028-.28.225-.365.393l-.534 1.545h-.196l-.646-1.685c-.028-.084-.056-.197-.169-.197h-.112v-.14Zm3.819 2.19-1.713-.168v-.14c.056 0 .225.055.281-.057.028-.028.028-.056.028-.084l.14-1.432v-.056a.06.06 0 0 0-.056-.057c-.056-.028-.14-.028-.224-.028l.028-.14 1.684.168-.056.73h-.14c-.056-.42-.168-.617-.59-.645h-.168c-.028 0-.028.028-.056.056s-.028.084-.028.14l-.057.534c.253.056.393-.113.45-.365l.14.028-.084.983-.14-.028c.027-.281-.113-.45-.366-.478l-.056.618c0 .112-.028.168.085.225.056 0 .084.028.14.028.393.028.561-.14.702-.534l.112.028-.056.674Zm.478-1.207.196-.73 1.629.365-.112.758-.113-.028c.028-.253 0-.646-.28-.702-.029 0-.085 0-.085.028s-.028.084-.028.112l-.309 1.404c-.028.112-.028.112.056.169.056.028.113.028.197.056l-.028.14-1.011-.224.028-.14c.084.027.14.027.225.027a.06.06 0 0 0 .056-.056c.028-.028.028-.056.028-.112l.309-1.348c0-.028.028-.084.028-.112 0-.029-.056-.057-.084-.085-.281-.056-.478.281-.562.506l-.14-.028Zm3.144 2.19-1.628-.562.056-.14c.056 0 .225.112.28.028.029-.028.029-.056.029-.084l.477-1.348c0-.028.028-.028 0-.056 0-.028 0-.056-.028-.056a1.367 1.367 0 0 0-.197-.085l.057-.14 1.6.562-.225.701-.112-.028c.028-.42-.028-.617-.421-.758-.056-.028-.112-.028-.168-.028-.028 0-.057.028-.057.028a.214.214 0 0 0-.056.14l-.168.506c.224.112.393 0 .505-.253l.112.057-.308.926-.14-.056c.084-.253 0-.45-.254-.534l-.196.59c-.028.112-.056.169.056.225.028.028.084.028.112.056.365.14.59 0 .815-.365l.112.056-.253.618Zm1.236-.477-.281.59c0 .027-.028.055-.028.084 0 .056 0 .084.028.112a.213.213 0 0 0 .112.056l.056.028-.056.14-.898-.449.056-.14c.028.028.084.028.112.056.112.056.14 0 .197-.084l.561-1.18c.028-.056.085-.168.085-.196-.029-.056-.085-.084-.14-.112l-.085-.029.056-.14.898.45.169.084a.51.51 0 0 1 .309.28.547.547 0 0 1 0 .422c-.14.308-.45.308-.702.224.168.14.224.31.168.562l-.056.168c-.028.056-.028.113-.028.197v.028c.084.112.197-.084.253-.169l.112.057a.612.612 0 0 1-.084.14c-.14.197-.337.197-.534.112-.084-.056-.168-.112-.196-.252-.028-.113 0-.197.056-.31l.056-.168c.084-.224.169-.365-.056-.505-.028-.028-.056-.028-.112-.056h-.028l.056-.14c.056.027.112.055.196.083.225.113.394.085.534-.196.112-.253.056-.365-.169-.477a.387.387 0 0 0-.168-.057c-.056 0-.084.085-.112.113l-.253.533-.084.14Zm1.628 1.263c-.056.056-.168.112-.224.197-.085.14 0 .252.112.309l-.084.112-.618-.393.084-.113c.169.085.365-.056.534-.168l1.291-.927.169.113-.421 1.769c-.028.168-.056.224.084.309l-.084.112-.73-.478.084-.112c.056.028.112.084.168.084.056-.028.056-.056.056-.112l.085-.337-.506-.365.169-.112.42.28.17-.73-.618.45-.14.112Zm2.387.562-.702.786c-.168.168-.197.309-.028.45l-.112.112-.534-.478.084-.112c.197.14.253.112.422-.056l.814-.927a.267.267 0 0 0-.112-.28l.084-.113.477.421-.112 1.629.533-.618c.14-.168.169-.28 0-.421l.085-.112.533.477-.084.112c-.112-.056-.197-.112-.309-.028l-.169.169-.954 1.095-.112-.113.196-1.993Zm.814 1.825.085.084c-.169.28-.253.702-.028.955.112.14.308.224.477.056.14-.14.112-.253.028-.393l-.084-.169c-.085-.168-.169-.309-.169-.505 0-.169.056-.337.197-.477.309-.281.674-.197.927.056a.571.571 0 0 1 .168.42h.197l.084.085-.534.505-.084-.084c.168-.28.253-.646.028-.87-.112-.112-.309-.197-.45-.056-.14.14-.084.309 0 .42l.085.141c.168.337.337.674-.028.983a.592.592 0 0 1-.505.169.665.665 0 0 1-.422-.253.807.807 0 0 1-.196-.506h-.225l-.084-.084.533-.477Zm1.882 2.555c-.085.028-.197.028-.281.084-.14.085-.084.225-.028.31l-.112.084-.393-.618.14-.085c.112.169.365.113.562.085l1.572-.31.112.17-1.095 1.46c-.112.14-.14.168-.056.336l-.14.085-.478-.759.112-.084c.029.028.085.14.113.14.056 0 .084-.027.112-.055l.225-.253-.365-.59.196-.028.281.421.45-.59-.73.141-.197.056Zm.337 1.713.14-.056.056.14c0 .028.028.056.028.056h.057a.212.212 0 0 0 .112-.056l1.263-.59c.057-.027.113-.055.085-.112 0-.056-.028-.084-.056-.14l-.028-.056.14-.056.702 1.516-.674.337-.056-.113c.309-.224.421-.449.28-.786-.027-.056-.055-.14-.112-.168-.056-.028-.112 0-.14.028l-.534.253c.113.252.253.28.534.196l.056.113-.87.42-.056-.112c.056-.028.112-.084.168-.112.112-.14.14-.253.056-.393v-.028l-.561.253c-.14.056-.169.084-.113.196l.056.14-.14.057-.393-.927Zm.702 1.544.14-.056.056.14c0 .029.029.057.029.057s.028 0 .028.028h.028c.056 0 .084-.028.112-.028l1.32-.45c.056-.028.112-.028.112-.084 0-.056-.028-.112-.028-.14l-.028-.056.14-.057.534 1.573-.702.253-.028-.113c.337-.196.477-.421.365-.758-.028-.056-.028-.14-.112-.197-.028-.027-.113 0-.14.029l-.562.196c.084.253.224.281.505.253l.056.112-.927.31-.056-.113c.056-.028.14-.056.169-.113.14-.112.168-.224.112-.393v-.028l-.59.197c-.14.056-.168.056-.14.196l.056.169-.14.056-.309-.983Zm1.207 1.685c-.084 0-.197-.028-.28 0-.17.028-.17.169-.141.28l-.14.029-.169-.702.14-.028c.057.196.31.224.506.253l1.6.196.057.197-1.517 1.039c-.14.084-.168.14-.14.28l-.14.029-.197-.871.14-.028c0 .056.028.14.084.168.057.028.085 0 .113-.028l.28-.168-.196-.646.197.028.112.505.618-.42-.73-.085-.197-.028Zm-.225 1.769.14-.028.029.168c.028.113.084.085.196.085l1.348-.169c.028 0 .056 0 .085-.028.028-.028.056-.028.056-.056v-.226l.14-.028.14.983-.14.028v-.084c0-.056 0-.112-.056-.169h-.14l-1.404.197c-.057 0-.113 0-.113.056v.197l-.14.028-.14-.955Zm1.32 1.881v.197c.028.253.113.393.422.365.28 0 .336-.14.336-.365 0-.056 0-.14-.028-.197-.028-.056-.112-.056-.168-.056l-.562.056h-.14l-.646.028h-.084c-.056 0-.084.029-.084.085v.196h-.14l-.029-.982h.14v.14c0 .112.057.112.17.112l1.29-.028c.057 0 .197 0 .225-.028.056-.056.028-.112.028-.168v-.085h.14l.029 1.011v.197c0 .14 0 .28-.112.421a.491.491 0 0 1-.394.197c-.337 0-.505-.253-.533-.534a.51.51 0 0 1-.421.393l-.169.056c-.056 0-.112.028-.196.056 0 0-.028 0-.028.028-.056.14.168.14.28.14v.141h-.168c-.253-.028-.337-.224-.337-.42a.36.36 0 0 1 .112-.282c.085-.084.197-.084.31-.112l.168-.028c.224-.028.393-.028.42-.28v-.197l.17-.057Zm-.365 1.601v.112c-.337.085-.702.281-.73.618-.028.168.056.365.28.393.198.028.282-.084.31-.253l.056-.168c.056-.169.112-.337.253-.477a.593.593 0 0 1 .477-.169c.421.028.618.365.59.73a.739.739 0 0 1-.197.421l.112.14v.113l-.73-.028v-.14c.31-.057.646-.253.674-.562 0-.169-.056-.365-.252-.365-.197-.028-.281.14-.31.28l-.055.17c-.113.364-.253.673-.759.645a.727.727 0 0 1-.477-.253c-.112-.14-.14-.309-.112-.477.028-.197.084-.365.224-.477l-.168-.169v-.112l.814.028ZM59.703 20.1l.14-.477-.73.028.59.45.14.112c.085.056.141.112.254.168.14.056.224-.056.252-.196l.14.056-.224.702-.14-.056c.028-.197-.14-.337-.31-.478l-1.263-.982.056-.169 1.826-.084c.168 0 .224-.028.28-.169l.14.056-.252.843-.14-.056c0-.056.056-.14.028-.169-.028-.056-.084-.028-.113-.028h-.337l-.196.618-.14-.168Zm.899 9.632.337.842-.14.056c-.029-.056-.056-.168-.113-.196-.028 0-.084.028-.14.028l-.87.337a.766.766 0 0 0-.337.168c-.085.084-.113.113-.113.225 0 .084 0 .14.028.224.056.113.14.225.31.253.168.028.308-.028.448-.084l.674-.253c.14-.056.281-.112.253-.253 0-.056 0-.084-.028-.112l.14-.056.253.646-.14.056c-.085-.197-.225-.197-.45-.112l-.758.28a.792.792 0 0 1-.253.057.605.605 0 0 1-.449-.113c-.112-.084-.168-.224-.224-.337-.056-.14-.113-.365-.056-.533.056-.197.224-.309.42-.393l1.068-.421c.028-.029.056-.029.056-.057 0-.056-.056-.168-.056-.196l.14-.056Zm.561 2.639-.926.506c-.197.112-.28.224-.197.393l-.14.084-.337-.618.14-.084c.113.197.197.197.422.084l1.095-.59a.304.304 0 0 0 0-.308l.14-.085.28.534-.673 1.432.702-.393c.197-.112.253-.197.168-.393l.14-.084.338.59-.14.083c-.085-.084-.141-.168-.281-.112a.843.843 0 0 0-.225.112l-1.292.702-.084-.14.87-1.713Zm-.336 2.499.112-.084.084.112c.084.085.112.028.225-.028l1.123-.786c.028-.028.056-.028.084-.056.028-.028.028-.028.028-.084 0-.056-.056-.085-.056-.113l-.028-.056.112-.084.534.758-.112.084-.056-.056c-.029-.028-.057-.112-.113-.112-.028 0-.028 0-.056.028-.028 0-.056.028-.084.056l-1.152.814c-.028.029-.084.056-.084.113 0 0 0 .028.028.028.028.028.028.056.056.084l.029.056-.113.084-.561-.758Zm1.769.31.618-.45 1.01 1.207-.561.506-.084-.084c.168-.197.393-.506.224-.73-.028-.029-.056-.057-.084-.029l-.084.085-1.095.926c-.085.056-.085.085-.056.169.028.056.084.084.112.14l-.112.084-.618-.73.112-.112.14.14c.029.029.057.029.085 0 .028 0 .056-.028.084-.056l1.067-.898.084-.084c.028-.029 0-.085 0-.085-.168-.196-.533-.056-.758.084l-.084-.084Zm1.628 3.565-1.18-1.095.113-.112c.056.028.14.169.225.112.028-.028.056-.056.084-.056l.983-1.039c.028-.028.028-.028.028-.056s.028-.056 0-.056a.339.339 0 0 0-.14-.14l.112-.113 1.18 1.095-.478.534-.084-.084c.196-.365.224-.59-.056-.843-.057-.028-.085-.084-.14-.084-.029 0-.057 0-.057.028a.389.389 0 0 0-.112.084l-.365.393c.168.169.365.14.561-.028l.084.085-.645.73-.085-.085c.169-.196.197-.42.028-.561l-.42.449c-.085.084-.113.14-.057.225l.084.084c.281.253.506.196.87-.028l.085.084-.618.477Zm1.18.702c-.028-.028-.084-.056-.084-.112s.056-.112.084-.169l.786-1.095c.028-.028.056-.084.084-.084a.3.3 0 0 1 .169.056c.253.197.253.422.084.73-.056.085-.112.197-.168.281-.028.056-.085.112-.113.169-.309.309-.533.449-.842.224l-.084.113c.14.084.309.224.449.252.197.028.421 0 .59-.14.14-.084.28-.225.365-.365a1.14 1.14 0 0 0 .252-.702c0-.112-.056-.225-.084-.309-.056-.112-.14-.169-.224-.253l-.169-.14-.646-.477-.084.112.056.028c.028.028.084.056.112.084.029.028 0 .056-.028.113l-.87 1.179c-.028.028-.028.056-.056.084l-.028.028h-.028a.576.576 0 0 1-.169-.112l-.084.112.702.506.028-.113Zm2.218.73.112.056c-.056.337-.028.73.281.87.14.085.365.085.45-.14.084-.168.027-.28-.085-.393l-.14-.112a1.142 1.142 0 0 1-.337-.393.64.64 0 0 1 .028-.505c.196-.394.561-.45.842-.281.14.056.225.168.309.337l.169-.056.084.056-.31.674-.112-.056c.057-.31 0-.674-.252-.815-.14-.056-.337-.084-.421.113-.085.168.028.308.14.393l.112.112c.281.224.506.477.281.927a.713.713 0 0 1-.393.365c-.168.056-.337 0-.45-.057-.14-.084-.28-.196-.336-.393l-.197.085-.084-.057.309-.73Zm1.713.281.309-.702 1.488.562-.225.73-.112-.028c.056-.253.084-.646-.168-.73-.028 0-.085-.029-.085.028-.028.028-.028.084-.056.112l-.505 1.32c-.028.084-.056.112.028.168l.168.084-.056.14-.898-.336.056-.14c.056.028.14.028.196.056.029 0 .056 0 .056-.028.029-.029.029-.057.057-.113l.505-1.291c0-.029.028-.085.028-.113 0-.028-.028-.084-.056-.084-.253-.084-.505.225-.618.45l-.112-.085Zm1.853 1.18.421-.618.057.73-.478-.112-.112.14.59.169.028.336c0 .057 0 .085-.028.113-.028.028-.14 0-.169-.028l-.028.14.814.225.028-.14c-.14-.057-.168-.113-.168-.282l-.14-1.825-.169-.056-.927 1.292c-.112.168-.252.365-.449.337l-.028.14.674.169.028-.14c-.112-.029-.225-.085-.168-.253.028-.085.084-.169.14-.253l.084-.084Zm1.264-.141.168-.73 1.544.28-.084.759-.112-.028c0-.253-.028-.646-.309-.674-.028 0-.084 0-.084.028 0 .056-.028.084-.028.112l-.253 1.404c-.028.113-.028.113.056.169a.356.356 0 0 0 .169.028l-.028.14-.955-.168.028-.14c.084 0 .14 0 .225.028a.06.06 0 0 0 .056-.057c.028-.028.028-.056.028-.112l.253-1.376c0-.028.028-.084.028-.112 0-.056-.056-.056-.085-.056-.28-.056-.449.309-.505.561l-.112-.056Zm3.51 1.657-1.629-.084v-.14c.056 0 .225.055.253-.057v-.084l.084-1.432V41.3a.06.06 0 0 0-.056-.057c-.056-.028-.14-.028-.197-.028v-.14l1.6.084-.027.73h-.113c-.084-.421-.196-.59-.561-.617-.056 0-.112 0-.169.028-.028.028-.028.028-.028.056-.028.028-.028.084-.028.14l-.028.534c.225.028.365-.113.393-.365h.112l-.056.982h-.14c0-.28-.112-.449-.365-.449l-.028.618c0 .112 0 .196.112.196.056 0 .084.029.14.029.366.028.534-.169.646-.562l.113.028-.028.646Zm.393-.758h.112c.112.309.365.645.674.645.168 0 .337-.112.337-.336 0-.197-.112-.253-.28-.281l-.17-.028c-.168-.028-.336-.056-.477-.197a.586.586 0 0 1-.224-.45c-.028-.42.252-.645.617-.673a.64.64 0 0 1 .422.14l.112-.14h.112l.056.73h-.112c-.112-.309-.337-.59-.618-.59a.31.31 0 0 0-.309.31c0 .196.169.252.31.28l.14.028c.337.056.674.169.702.674a.784.784 0 0 1-.169.505.62.62 0 0 1-.421.169.763.763 0 0 1-.477-.169l-.14.169h-.113l-.084-.786Zm4.127.14c.281-.084.253-.421.225-.674-.028-.112-.028-.225-.056-.309-.084-.309-.281-.87-.674-.758-.421.112-.28.674-.197 1.01.056.17.14.422.253.562.112.169.28.225.45.169l-.029.14a.858.858 0 0 1-.73-.14c-.196-.14-.365-.393-.45-.646a1.03 1.03 0 0 1 .085-.814.892.892 0 0 1 .562-.45c.252-.084.505-.028.758.113.224.14.393.393.45.646.083.252.027.59-.085.814a.857.857 0 0 1-.59.45l.028-.113Zm1.068-.14-.057-.14.14-.057c.029 0 .057-.028.057-.028v-.056c0-.056-.028-.084-.028-.113l-.45-1.32c-.028-.056-.028-.112-.084-.112-.056 0-.084.029-.14.029l-.056.028-.056-.14 1.572-.562.253.702-.113.028c-.196-.337-.42-.478-.758-.365-.056.028-.14.056-.196.112-.028.056 0 .084.028.14l.196.534c.253-.084.281-.225.253-.506l.112-.056.31.927-.113.056c-.028-.056-.056-.14-.112-.169-.113-.14-.225-.168-.394-.112h-.028l.197.59c.056.14.056.168.197.14l.14-.056.056.14-.927.366Zm2.92-2.106-.14-.73.561.505-.421.225.028.196.533-.309.253.225c.028.028.056.056.056.112s-.084.085-.14.113l.084.14.73-.421-.084-.14c-.14.084-.169.056-.309-.057l-1.376-1.207-.168.084.252 1.573c.029.196.085.42-.084.533l.084.14.59-.337-.084-.14c-.084.056-.225.084-.31-.056-.055-.084-.055-.197-.083-.28l.028-.17Zm2.583-.674-.084.084-1.517-1.151.759 1.01c.14.197.28.31.449.17l.084.111-.533.393-.085-.112c.169-.14.113-.253 0-.45l-.702-.954c-.028-.028-.056-.112-.112-.112s-.112.056-.14.084l-.056.028-.085-.112.618-.45 1.039.759-.45-1.208.618-.449.085.112-.056.057c-.057.028-.113.056-.085.14.028.056.085.112.113.168l.814 1.096c.028 0 .028.028.028.028.056.056.14 0 .197-.056l.056-.029.084.113-.73.533-.084-.112.112-.084c0-.028.028-.028.028-.056v-.057c0-.028-.028-.056-.056-.084l-.927-1.235.618 1.825Zm2.527-2.219-1.15 1.124-.113-.113c.028-.056.168-.14.112-.224-.028-.028-.028-.056-.056-.085l-1.01-1.039c-.029-.028-.029-.028-.057-.028s-.056-.028-.056 0a.338.338 0 0 0-.14.14l-.113-.112 1.151-1.123.534.506-.084.084c-.365-.225-.562-.253-.843 0a.614.614 0 0 0-.112.14v.056a.38.38 0 0 0 .084.113l.365.393c.197-.14.169-.337 0-.562l.084-.084.702.702-.084.084c-.196-.196-.393-.224-.561-.056l.42.45c.085.084.113.14.225.056a.387.387 0 0 1 .113-.085c.28-.252.224-.505 0-.87l.084-.084.505.617Zm-.14-1.544-.45-.365c-.027-.028-.083-.084-.083-.14a.612.612 0 0 1 .084-.14c.14-.17.28-.197.477-.029.225.197.225.365.084.534a.61.61 0 0 0-.112.14l.112.084.057-.056.084-.084c.168-.168.28-.056.477.056l.14.112c.085.057.197.113.281.113.113 0 .197-.056.281-.14.112-.141.169-.338 0-.534-.028-.056-.084-.084-.112-.112l-.084.084c.056.056.224.224.112.28h-.028a88.162 88.162 0 0 0-.169-.084l-.168-.084c-.225-.112-.393-.112-.562 0 .14-.224.197-.505-.084-.73a.57.57 0 0 0-.421-.112.559.559 0 0 0-.337.224l-.112.14-.59.73.112.085.056-.056c.028-.028.056-.084.14-.084.057 0 .141.084.197.112l1.011.814c.084.085.112.113.056.197-.028.028-.056.084-.084.112l.112.084.59-.73-.112-.084-.028.056a33.42 33.42 0 0 0-.085.084c-.028.029-.056.029-.112 0-.028-.028-.056-.028-.084-.056l-.505-.42h-.14Zm1.74-.421-.111-.084.084-.113c.056-.112 0-.14-.113-.196l-1.123-.758c-.028-.029-.056-.029-.084-.057-.028 0-.056-.028-.084 0a.388.388 0 0 0-.084.113l-.057.056-.112-.084.534-.758.112.084-.056.056c-.028.028-.085.084-.056.14 0 .028.028.028.028.056.028.029.056.029.084.057l1.18.786c.027.028.084.056.14.028l.028-.028.084-.084.028-.056.112.084-.533.758Zm-.42-3.285.056-.085.702.365-.056.113c-.31-.085-.702-.14-.87.14-.085.112-.085.225 0 .365.083.14.168.197.28.309.084.056.196.14.28.197a.99.99 0 0 0 .394.168c.14.056.224.056.365.028a.448.448 0 0 0 .252-.197c.14-.252 0-.561-.28-.758l.112-.112c.393.337.477.646.28 1.039-.112.225-.308.337-.56.393-.254.056-.506-.028-.759-.168a1.209 1.209 0 0 1-.562-.618c-.084-.253-.084-.477.029-.674.084-.14.168-.253.337-.309 0 0 .028 0 .028-.028l-.028-.168Zm1.46-.085-.534-.505.73.056-.196.45.14.112.253-.562.337.028c.056 0 .084 0 .112.056.028.056-.028.113-.028.169l.14.056.337-.758-.14-.056c-.084.14-.112.14-.28.14l-1.826-.112-.056.168L92.36 32.4c.14.14.31.31.253.478l.14.056.281-.618-.14-.056c-.056.112-.14.197-.281.14-.084-.028-.168-.112-.225-.168l-.168-.169ZM74.614 44.249c.196.14.421.365.674.646.28.309.59.646.898.814.478.253.955.197 1.32-.112-.225-.14-.45-.365-.702-.646-.28-.309-.59-.618-.899-.786-.477-.253-.954-.225-1.291.084Zm-1.966-.253c.197.169.394.421.59.702.253.337.534.702.814.899.45.309.927.309 1.32.028a3.925 3.925 0 0 1-.618-.702c-.252-.337-.533-.674-.814-.87-.45-.31-.927-.338-1.292-.057Zm-1.909-.421c.168.168.337.45.533.758.225.365.45.758.73.983.422.337.899.393 1.32.14-.197-.168-.365-.449-.562-.758-.224-.365-.449-.73-.73-.955-.42-.365-.87-.42-1.291-.168Zm-1.825-.618c.168.197.308.477.449.814.196.394.365.787.618 1.04.365.392.842.477 1.291.28-.168-.196-.309-.505-.477-.814-.197-.365-.393-.758-.618-1.011-.393-.421-.842-.533-1.263-.309Zm-1.77-.814c.14.197.253.505.366.842.14.393.308.815.533 1.095.337.422.814.562 1.264.394-.14-.197-.281-.534-.394-.843-.14-.393-.308-.786-.533-1.067-.365-.421-.814-.59-1.236-.421Zm-1.684-.983c.112.225.197.534.28.87.113.422.225.843.394 1.152.28.45.73.646 1.207.533a4.147 4.147 0 0 1-.309-.898c-.112-.393-.224-.815-.42-1.123-.282-.45-.703-.646-1.152-.534Zm-1.573-1.123c.084.225.14.562.197.898.056.422.14.871.28 1.18.253.477.674.73 1.152.646-.113-.225-.169-.562-.225-.899-.084-.421-.14-.842-.309-1.151-.252-.506-.645-.758-1.095-.674Zm-1.46-1.292c.084.253.084.562.113.927.028.421.028.87.168 1.207.197.506.59.759 1.095.759-.084-.253-.112-.59-.14-.927-.028-.421-.056-.843-.197-1.18-.196-.533-.561-.814-1.039-.786Zm-1.319-1.432c.056.253.028.562 0 .927-.028.421-.056.87.056 1.207.14.506.505.843.983.843-.057-.253-.057-.59-.029-.955 0-.421.029-.842-.056-1.18-.14-.505-.505-.814-.954-.842Zm-1.18-1.544c.028.253-.028.59-.084.926-.056.422-.14.87-.084 1.208.084.533.42.87.898.955-.028-.253 0-.59.056-.927.057-.421.113-.842.057-1.18-.085-.561-.394-.926-.843-.982Zm-1.038-1.657c0 .253-.085.562-.17.899-.111.42-.224.842-.196 1.207.029.533.337.927.815 1.039 0-.253.084-.59.14-.927.084-.42.197-.842.169-1.179 0-.562-.281-.927-.759-1.039Zm-.843-1.769c-.028.253-.14.562-.253.87-.14.394-.309.815-.309 1.18-.028.534.253.955.702 1.123.028-.252.14-.561.253-.926.14-.394.28-.815.28-1.152.029-.533-.224-.926-.673-1.095Zm-.647-1.825c-.055.253-.196.534-.336.842-.197.394-.393.787-.421 1.152-.056.533.14.954.59 1.18.056-.254.196-.563.336-.871.169-.393.337-.787.393-1.124.057-.533-.14-.954-.561-1.179Zm-.476-1.881c-.084.224-.253.505-.422.814-.224.365-.449.758-.533 1.095-.112.534.056.983.477 1.236.085-.253.253-.534.422-.843.196-.365.42-.73.505-1.067.084-.533-.056-.983-.45-1.235Zm-.309-1.91c-.085.225-.31.478-.506.758-.253.337-.533.702-.646 1.04-.168.505-.028.982.337 1.263.085-.225.281-.506.506-.786.252-.337.505-.702.617-1.04.169-.505.085-.954-.308-1.235Zm-.085-1.965c-.112.224-.337.449-.59.702-.28.309-.589.646-.758.954-.224.478-.14.983.225 1.292.113-.225.337-.477.59-.758.28-.309.561-.646.702-.955.224-.45.168-.898-.169-1.235Zm.085-1.938c-.14.197-.393.421-.646.646-.337.28-.674.59-.843.899-.28.477-.224.954.085 1.32.14-.225.393-.45.645-.675.31-.28.618-.59.815-.87.28-.477.253-.955-.056-1.32Zm.281-1.909c-.169.196-.422.393-.702.59-.337.252-.702.505-.927.786-.309.42-.337.926-.056 1.32.168-.197.421-.394.73-.618.337-.253.674-.506.87-.787.337-.449.365-.926.085-1.291Zm.477-1.882c-.168.169-.477.337-.758.506-.365.224-.758.45-.983.702-.365.393-.421.87-.168 1.291.168-.168.477-.364.758-.533.365-.225.73-.45.954-.702.366-.393.45-.87.197-1.264Zm.674-1.853c-.197.169-.506.281-.815.45-.393.168-.786.364-1.067.59-.393.364-.505.841-.309 1.29.197-.168.506-.308.815-.477.365-.196.758-.365 1.01-.59.422-.364.562-.814.366-1.263Zm.843-1.74c-.197.14-.534.252-.843.336-.421.14-.842.281-1.123.506-.422.308-.59.786-.422 1.235.225-.14.534-.253.871-.393.393-.14.814-.28 1.095-.505.393-.31.562-.73.421-1.18Zm1.01-1.657c-.224.112-.533.196-.87.252-.421.084-.87.197-1.151.393-.45.281-.646.73-.562 1.18.224-.113.562-.197.898-.281.422-.113.843-.225 1.124-.393.449-.281.645-.702.561-1.151Zm1.151-1.573c-.224.084-.561.14-.898.169-.422.056-.87.112-1.208.252-.477.225-.73.646-.674 1.124.225-.085.562-.14.927-.197.421-.056.842-.14 1.151-.28.534-.197.758-.59.702-1.068Zm1.32-1.432a4.351 4.351 0 0 1-.927.084c-.42 0-.87.028-1.207.14-.506.197-.786.59-.786 1.068.252-.085.59-.085.954-.113.422-.028.843-.056 1.18-.168.533-.168.814-.534.786-1.01Zm-1.123-.308c.169 0 .337 0 .506.027.449.028.898.028 1.179-.028.533-.14.842-.477.87-.927a5.041 5.041 0 0 1-.926 0c-.45-.028-.927-.056-1.208.029-.505.14-.842.505-.87.982.14-.084.28-.084.45-.084Zm1.207-1.433c.225 0 .506.028.815.084.42.057.842.113 1.179.085.534-.085.898-.393.983-.843-.253.028-.562-.028-.927-.084-.421-.084-.87-.14-1.207-.112-.534.084-.899.42-.983.898.028-.028.084-.028.14-.028Zm1.488-1.263c.31 0 .618.084.927.168.393.084.786.197 1.123.197h.056c.534-.029.927-.281 1.067-.73-.28 0-.59-.085-.898-.197-.393-.112-.786-.225-1.123-.225h-.085c-.561 0-.954.31-1.067.787Zm1.742-1.152c.252.028.561.14.898.253.393.14.814.28 1.151.309.534.028.955-.197 1.124-.646-.253-.028-.562-.14-.87-.28-.394-.17-.815-.31-1.18-.338h-.085c-.477.028-.87.281-1.038.702Zm1.853-.926c.252.056.561.196.87.337.393.168.786.365 1.123.42.562.085.955-.112 1.18-.505-.253-.056-.534-.196-.843-.365-.393-.196-.786-.393-1.123-.449-.562-.084-.983.14-1.207.562Zm1.937-.758c.253.084.534.252.843.449.365.225.73.45 1.067.533.533.14.982 0 1.207-.393-.225-.084-.505-.252-.814-.449-.365-.225-.73-.477-1.096-.562-.477-.14-.954.029-1.207.422Zm1.994-.562c.224.112.505.309.786.505.337.253.674.506 1.01.646.17.056.338.084.478.084a.936.936 0 0 0 .758-.365c-.224-.112-.477-.308-.758-.533-.337-.28-.674-.534-1.01-.674a1.124 1.124 0 0 0-1.264.337Zm2.05-.366c.224.113.477.366.73.59.309.281.617.59.954.73.478.253.955.169 1.264-.14-.225-.112-.45-.365-.702-.59-.309-.308-.646-.617-.955-.758-.477-.224-.954-.168-1.291.169Zm2.078-.14c.224.14.449.394.674.674.28.31.561.646.87.815.45.28.927.28 1.292-.028-.197-.14-.422-.394-.646-.674-.28-.337-.562-.674-.87-.843-.478-.28-.955-.252-1.32.056Zm2.077.057c.197.168.393.449.59.73.253.337.505.702.786.898.421.337.899.365 1.292.112-.197-.168-.365-.449-.562-.73-.252-.365-.505-.73-.786-.926-.45-.337-.927-.365-1.32-.084Zm2.05.253c.169.196.337.477.534.786.224.365.42.73.674.982.393.365.842.45 1.263.225-.168-.197-.337-.477-.505-.786-.197-.393-.421-.786-.674-1.011-.365-.337-.87-.421-1.292-.197Zm2.022.477c.169.196.309.505.45.814.168.393.364.786.589 1.04.365.42.814.533 1.236.364-.14-.196-.281-.505-.422-.814-.168-.393-.337-.815-.59-1.067-.336-.393-.814-.534-1.263-.337Zm1.965.646c.14.224.253.533.365.87.14.393.281.814.478 1.095.309.45.758.618 1.207.477-.14-.224-.224-.533-.337-.87-.14-.421-.252-.842-.477-1.123-.309-.421-.674-.506-.899-.506-.112.028-.224.028-.337.056Zm1.91.87c.112.225.197.562.28.899.085.42.198.842.366 1.123.28.505.674.617.927.617.056 0 .14 0 .196-.028-.112-.224-.168-.561-.253-.898-.084-.421-.168-.87-.365-1.18-.252-.42-.674-.617-1.15-.533Zm1.797 1.039c.084.225.14.562.197.927.056.42.112.842.252 1.15.225.506.618.759 1.067.703-.084-.225-.112-.562-.168-.899-.056-.42-.085-.87-.225-1.207-.28-.618-.73-.702-.983-.702-.056.028-.112.028-.14.028Zm1.685 1.208c.056.252.084.59.084.954.028.421.028.842.14 1.18.17.533.534.814 1.011.814-.056-.253-.056-.562-.056-.927 0-.421 0-.87-.112-1.207-.197-.506-.59-.815-1.067-.815Zm1.544 1.375c.056.253.028.59 0 .955-.028.421-.056.842.028 1.18.113.533.45.87.927.898-.028-.253 0-.562.028-.927.028-.421.084-.87 0-1.235-.14-.478-.477-.815-.983-.87Zm1.433 1.517c.027.252-.029.59-.085.954-.056.421-.14.843-.113 1.18.057.533.366.898.815.982 0-.252.056-.561.112-.898.084-.421.169-.87.112-1.208-.056-.533-.365-.898-.842-1.01Zm1.235 1.656c0 .253-.084.59-.197.927-.112.393-.224.814-.224 1.18 0 .533.28.926.73 1.066 0-.252.112-.561.196-.898.113-.421.253-.843.253-1.208 0-.505-.28-.926-.758-1.067Zm1.095 1.797c-.028.253-.14.562-.28.899-.141.393-.31.786-.338 1.151-.056.534.169.955.618 1.123.028-.252.168-.561.309-.87.168-.393.337-.814.365-1.151 0-.562-.225-.983-.674-1.152Zm.898 1.854c-.056.252-.196.561-.365.87-.196.365-.393.758-.449 1.095-.112.534.084.955.505 1.18.057-.253.225-.534.394-.843.196-.393.42-.786.477-1.123.056-.505-.14-.955-.562-1.18Zm.702 1.965c-.084.253-.253.534-.45.843-.224.365-.448.73-.56 1.039-.141.533-.029.954.364 1.235.085-.225.281-.505.45-.786.252-.365.505-.73.59-1.067.168-.534.027-1.011-.394-1.264Zm.534 1.994a4.878 4.878 0 0 1-.534.786c-.253.337-.533.674-.646.983-.196.505-.112.955.253 1.263.112-.224.309-.477.534-.73.28-.336.561-.674.702-1.01.168-.506.056-.983-.31-1.292Zm.309 2.078c-.14.224-.365.449-.618.73-.28.309-.59.618-.758.927-.253.477-.197.954.112 1.291.14-.224.365-.45.618-.674.309-.309.618-.617.786-.926.253-.534.197-1.011-.14-1.348Zm.112 2.05c-.14.196-.393.42-.674.645-.308.281-.645.562-.842.843-.309.45-.309.926 0 1.291.14-.196.421-.42.674-.617.337-.281.674-.562.87-.843.281-.449.281-.926-.028-1.32Zm-.112 2.077c-.168.197-.45.394-.73.59-.337.253-.702.477-.927.758-.337.421-.393.87-.14 1.292.169-.169.45-.365.73-.562.365-.224.73-.477.955-.758.337-.421.365-.898.112-1.32Zm-.309 2.05c-.197.169-.478.337-.787.506-.365.196-.758.42-.982.674-.394.393-.478.842-.253 1.263.197-.168.477-.309.786-.477.393-.197.786-.393 1.011-.646.365-.393.45-.87.225-1.32Zm-.506 2.022c-.196.14-.505.28-.842.421-.393.169-.786.337-1.067.562-.421.337-.562.786-.393 1.235.197-.14.505-.28.814-.393.393-.168.815-.337 1.095-.561.45-.337.59-.815.394-1.264Zm-.701 1.965c-.225.141-.534.225-.871.337-.393.14-.814.253-1.095.45-.45.309-.646.73-.505 1.18.224-.113.533-.225.87-.31.421-.112.842-.252 1.123-.449.421-.309.618-.758.478-1.207Zm-.899 1.882c-.225.112-.562.168-.899.253-.42.084-.842.168-1.15.337-.478.252-.703.673-.619 1.123.225-.113.534-.169.87-.225.422-.084.871-.168 1.18-.337.478-.253.702-.674.618-1.151Zm-1.095 1.797c-.253.084-.59.112-.927.168-.42.057-.842.085-1.179.225-.505.197-.758.59-.73 1.067.225-.084.562-.112.898-.14.422-.028.871-.085 1.208-.197.505-.252.758-.646.73-1.123Zm-1.292 1.685c-.252.056-.59.056-.926.056-.421 0-.87 0-1.18.112-.533.14-.814.506-.842.983.197-.056.534-.056.927-.028h.365c.252 0 .59 0 .842-.085.506-.168.814-.533.814-1.038Zm-4.324 2.415c.225 0 .505.028.786.056.393.056.815.112 1.123.056.534-.112.871-.45.927-.927-.225.028-.59 0-.927-.028-.42-.028-.842-.084-1.207-.028-.533.084-.87.421-.927.899.057 0 .14-.028.225-.028Zm-1.881 1.095c.252 0 .561.084.898.14.421.084.87.197 1.208.169.617-.057.983-.478 1.067-.87-.253.027-.59-.057-.955-.113-.421-.085-.87-.14-1.207-.113-.562.057-.927.337-1.011.787Zm-1.713.87c.252.028.561.112.898.225.422.14.843.28 1.18.28.533 0 .954-.28 1.095-.73a4.868 4.868 0 0 1-.927-.224c-.393-.113-.814-.253-1.151-.253-.562.028-.955.28-1.095.702Zm-1.825.73c.252.056.533.169.87.337.393.169.786.365 1.151.393.534.056.955-.168 1.152-.617-.253-.028-.562-.169-.899-.31-.393-.168-.786-.336-1.123-.364-.562-.085-.955.112-1.151.561Zm-1.91.534c.253.056.534.224.814.42.365.226.758.45 1.095.506.534.113.983-.084 1.208-.505-.253-.056-.534-.225-.87-.393-.366-.197-.759-.422-1.096-.478-.477-.14-.926.029-1.151.45Zm-1.938.337c.225.084.506.28.787.477.337.253.702.505 1.039.618.505.168.982.028 1.263-.365-.224-.084-.505-.281-.814-.478-.337-.224-.702-.477-1.039-.59-.505-.168-.955-.055-1.236.338Zm-1.937.14c.225.112.478.337.73.562.31.28.646.59.983.73.506.196.983.112 1.292-.253-.225-.112-.477-.337-.758-.562a5.182 5.182 0 0 0-.955-.702c-.533-.196-.983-.14-1.292.225Z"/><path fill="#112E51" d="M68.913 21.168c.057-.029.029-.14 0-.225-.14-.253-.337-.478-.533-.702-.225-.281-.477-.477-.674-.758-.225-.31-.337-.618-.562-.899-.365-.45-.42-.618-1.095-.477-.224.028-.954.14-.73.28.983.646 2.5 1.713 2.752 2.107.028.028.197.28.197.308.112.169.168.31.224.506-.084-.084-.168-.197-.252-.28-.281-.366-.815-.197-.955 0 .421.055 1.291.617 1.516.898.084-.197-.056-.674.112-.758Z"/><path fill="#112E51" d="M67.313 18.697c.113.224.281.42.393.645.057.085.113.14.169.225.197.225.365.477.646.562.028 0 .028-.113 0-.169-.169-.533-.478-.955-.815-1.404-.28-.365-.561-.702-.926-.955.561.365.983.899 1.348 1.433.168.252.337.477.449.73.084.196 0 .42.112.59.028-.253.197-.422.113-.59-.366-.674-.703-1.348-1.068-2.022-.533-.899-1.516-1.264-2.442-1.376-.113-.028-.618.028-.618.168.561.478 1.376.87 1.937 1.348.31.197.562.534.702.814Z"/><path fill="#112E51" d="M67.706 17.208c.309.534.477 1.095.786 1.629.084.14.14.28.225.421.084.113.225.393.225.28 0-.083-.028-.252-.057-.364-.28-.646-.533-1.292-.87-1.91.168.281.28.562.45.815.111.168.168.365.308.533.028.028 0 .085.028.113 0 .028.028.028.056.056-.056-.674-.224-1.348-.337-2.022-.786-.702-1.769-1.966-2.808-2.303-.084.169.085.31.169.45.421.73 1.376 1.516 1.825 2.302Z"/><path fill="#112E51" d="M68.633 16.59c.252.787.224 1.601.533 2.36.085.168.253-.085.253-.17.056-.533.028-1.038-.14-1.516a9.12 9.12 0 0 0-.31-.786c.282.365.338.842.59 1.207.14-.42 0-.842.029-1.291 0 .112-.113-.59-.113-.59-.056-.168-.196-.28-.309-.393-.561-.505-1.32-1.432-2.022-1.74 0 0-.168.055-.14.055.084.337.702.927.87 1.236.253.533.562 1.039.759 1.628Z"/><path fill="#112E51" d="M69.728 17.264c0 .366-.056.759-.084 1.124-.028.196.056.337.168.477h.085c.224-.365.14-.758.168-1.151.056-.843-.112-1.629-.168-2.443.196 1.067.365 2.106.393 3.2.112-.533.224-.477.309-1.852.028-.506-.197-1.011-.394-1.545-.14-.365-.505-.702-.73-1.01-.056-.085-.393-.366-.42-.225-.057.14.224.505.308.646.337.87.393 1.853.365 2.78Z"/><path fill="#112E51" d="M70.374 18.64c0 .056.252.085.28-.028.056-.196.113-.365.169-.561.084-.337.084-.674.112-1.04.028-.252-.056-.477-.056-.701.112.084.084.252.112.365.113.561.028 1.095 0 1.656 0 .029.028.057.056.029.169-.14.337-.281.394-.478.084-.253.084-.533.056-.758-.085-.618-.253-1.629-.787-2.022 0 0-.056.028-.056.056 0 .113 0 .843.028.983.028.843-.112 1.685-.308 2.5Z"/><path fill="#112E51" d="M70.992 18.584a.4.4 0 0 0 .084.056c.056.028.084.084.112.169.056.112.253.084.281.056.758-.842.786-1.404.814-1.46.028-.281 0-.674-.14-.758-.084-.057-.112.168-.14.28-.113.337-.225.674-.394.983-.168.253-.42.393-.617.674Zm.618.393c-.113.225.14.281.28.421.506-.674.59-.533.843-.842.309-.337.28-.814.084-1.235-.365.308-.534.786-.842 1.15-.113.17-.281.31-.365.506Zm-2.472 1.152c.056.084.113.252.14.196.113-.168.282-.309.253-.59 0 0 .029-.084.029-.112.056-.253 0-.477-.029-.758-.224.084-.28.28-.393.45-.084.112-.084.252-.056.392 0 .169 0 .31.056.422Zm1.067-1.32c-.365.112-.533.505-.561.842 0 .113-.169.337-.029.337.169-.028.366.056.422.225.028.084.056-.028.084-.028-.084-.393-.084-.843.14-1.236.056-.056-.028-.168-.056-.14Zm.338 1.179c-.029-.365.084-.73.393-.983.084-.056-.057-.196-.14-.224h-.085c-.14.084-.28.196-.365.337-.14.309-.14.617-.028.898.028.113.225.085.225-.028Z"/><path fill="#112E51" d="M71.104 19.258c.084-.056.169-.084.253-.168.028-.057 0-.14-.084-.14-.14-.029-.225.111-.31.224-.112.196-.308.309-.28.702.112-.169.224-.478.421-.618Zm-.112.842a.777.777 0 0 0 .365-.309c.112-.14.224-.056.28-.168.029-.084.029-.225-.056-.28-.14-.085-.252 0-.393.084-.224.168-.365.393-.365.645.028.085.113.056.169.028Zm.758-.449c.084.056.224 0 .252.113.028.056.056.084.056.112.085.224-.14.45.057.646.112-.169.365-.393.477-.562.084-.14.197-.28.337-.393.196-.197.702-.365.842-.618.113-.196.113-.421.14-.646 0-.084.085-.224 0-.252-.168-.028-.645.28-.786.393-.28.224-.477.477-.758.702-.168.14-.505.309-.618.505Z"/><path fill="#112E51" d="M72.957 19.707c-.28.253-.73.674-.702 1.011 0 .113.309 0 .45.084.056.029.056.113.028.197.14.028.28 0 .42.056.085.028.029.14.085.225.028.028.197.084.225.028.196-.477.842-1.123 1.291-1.376.169-.084.113-.477-.028-.505-.505-.085-1.18.617-1.348 1.123-.056-.478.59-.899.73-1.011.113-.084.14-.309.028-.337-.337-.112-.898.28-1.179.505Z"/><path fill="#112E51" d="M73.884 20.802c-.085.113-.14.253-.169.365-.028.113-.28.422-.168.506.084.028.224-.084.28 0 .253.45.534.168.562.421 0 .056.169.028.225-.028.337-.365 1.32-1.01 1.235-1.572-.224-.14-.533.028-.73.14-.14.084-.477.45-.646.561-.056.029-.028-.056-.028-.056.169-.252.618-.674.87-.814.141-.084.197-.337.029-.421-.31-.14-.899.309-1.151.533-.085.113-.197.225-.31.365Z"/><path fill="#112E51" d="M74.165 23.61a.896.896 0 0 0 .252-.084c.281-.168.646-.42.815-.702.168-.252.365-.449.533-.702.028-.028.084-.14 0-.112-.196.056-.252.225-.421.337.309-.534.758-.758.618-1.292-.028-.112-.506.393-.618.506-.14.14-.365.252-.393.449-.056.225.056.45.056.674 0 .084.056.196.028.309 0 .028 0 .112-.056.084-.084-.056-.028-.28-.197-.253-.112.028-.112.197-.252.197 0-.281.42-.534.112-.702-.168-.084-.28.14-.45.14.029-.084.141-.14.17-.224.027-.085-.057-.169-.113-.14-.169 0-.337.111-.505.168.056-.14.196-.337.084-.422-.169-.084-.31.14-.478.197.028-.168.14-.309.056-.45-.14-.168-.336-.027-.505.029.056-.14.225-.28.14-.393-.14-.197-.449-.028-.673 0 .056-.113.196-.253.112-.31-.197-.168-.478.057-.618.254 0 .028-.028-.085 0-.085.084-.224.169-.505.056-.73-.056-.112-.252.028-.337-.056.113-.056.281-.084.31-.224.027-.085.027-.225-.085-.225-.337-.028-.618.225-.786.533-.028.028 0 .113 0 .14 0 .029-.056-.027-.056-.027.056-.085 0-.14-.057-.14-.056-.029-.112-.029-.14 0-.14.112-.28.28-.421.364.028-.168.196-.449 0-.505-.169-.056-.281.168-.421.28.056-.084.084-.168.028-.252-.056-.112-.169-.14-.281-.084-.253.112-.393.393-.393.674-.056-.197-.056-.281-.084-.422 0-.084-.113-.14-.14-.14-.197.112-.197.393-.085.562.084.14.309.14.393.28.028.057 0 .113.028.169a.338.338 0 0 0-.14-.14c-.056-.029-.169-.057-.169.028 0 .084-.14.505-.084.617.112.225.056.506.28.618.927.393 1.826.758 2.416 1.629.758-.31 1.628-.393 2.47-.422Z"/><path fill="#fff" d="M78.236 20.157c.028.028.112 0 .112.056-.028.084-.112.028-.168.028-.056 0-.028-.056-.056-.084.056 0 .112-.029.112 0Zm-.926 1.207c-.056.028-.113.084-.14.056-.029-.028.055-.084 0-.112-.057-.056-.085-.112-.057-.14.056-.057.168-.028.225.028.028.056.028.084-.028.168Z"/><path fill="#112E51" d="M76.776 19.37c.028-.028.028-.084.084-.112.056-.028.14-.028.197-.056.084-.028.084-.14.084-.169.112-.393.084-.842.253-1.235-.028.337-.085.786-.056 1.095 0 .084.168.14.28.168.056.029.113-.084.113-.14 0-.505.084-1.432-.113-1.91 0 0-.224.17-.252.17-.955.533-.674 2.077-.59 2.19Zm1.741 8.958c-.534-.45-.87-1.264-1.04-1.966-.027-.084-.055-.14 0-.14.17-.056.057-.225.085-.365.028.084.112.14.197.168.084.028.056-.084.084-.084.084.028-.056.056-.028.112-.112.085-.197.14-.197.253 0 .365.225.674.393 1.01a.55.55 0 0 0 .253.254c.084.028.14-.028.14-.085a.47.47 0 0 0-.028-.337c-.112-.308-.337-.533-.42-.842.308.45.533 1.123 1.15 1.207.085 0 .113-.14.057-.196-.365-.477-.674-.899-1.04-1.348 0-.028-.084-.028-.14-.056-.309-.112-.561-.365-.926-.393.028-.056-.056-.084-.028-.084.084-.029.168-.029.168-.113s.056-.196-.056-.253c-.112-.056-.197.029-.28.085-.029.028-.085 0-.113.028a.256.256 0 0 1-.225.112c-.14 0-.112-.168-.14-.309 0-.028-.056-.056-.056-.056-.281.056-.506 0-.759.028-.056 0-.056-.056-.084-.112-.028-.028 0-.056.028-.056.028.056.085.084.113.084.112-.028.056-.197.056-.28 0-.029.084.083.112.027.253-.224.421-.617.59-.87.224-.421.28-.702.505-1.123.028-.029 0-.085 0-.113 0-.112.112-.224.197-.309-.028-.028-.113-.084-.084-.14.028-.056.14-.084.14-.084-.028-.056-.112-.084-.084-.14 0-.057.084-.085.112-.141.028-.056-.056-.14.056-.197.028 0 .056-.028.084 0 .14.085.113.197.056.31-.028.084.14.027-.056.308-.056.084.085.113 0 .281-.056.112-.168.169-.196.253a1.994 1.994 0 0 0-.084.59c0 .252-.085.477-.197.73-.084.168-.253.308-.28.505-.029.084.055.196.168.14.084-.028.056-.112.112-.168 0 .196.028.533.253.45.14-.057.056-.282-.056-.422 0 0 .028-.056.056-.028.028.084.084.14.14.168.056.028.14.028.169-.056.028-.14-.085-.225-.169-.337.028 0 .056-.028.084 0l.085.084c.14.057.252-.056.28-.168.028-.084-.084-.14-.168-.197.084-.084.225-.056.253-.196.028-.113-.085-.169-.14-.253.112 0 .252-.028.28-.14.028-.14-.14-.14-.225-.113 0-.028-.028-.084.028-.084.14-.028.225-.112.31-.196-.085-.085-.197-.169-.338-.169 0 0 0-.028.028-.056.029-.028.057.056.085.028.028-.028.028-.056.056-.056.112 0 .253-.084.253-.169 0-.112-.281-.084-.253-.252.028-.056.14-.085.168-.14.028-.085-.112-.141-.112-.197.028-.085.225-.056.253-.169.028-.14-.085-.112-.169-.168v-.056c.14 0 .281 0 .337-.14.028-.029-.028-.085-.028-.113-.056-.056-.168-.084-.168-.112.028-.085.309-.029.337-.14 0-.113-.14-.17-.225-.254.112 0 .309.085.337-.084.028-.14-.197-.084-.253-.224.197-.029.534-.029.59-.253.028-.14-.225-.056-.365-.056 0-.028 0-.056-.028-.084.196-.057.505-.085.505-.337 0-.113-.14-.14-.224-.14-.14.027-.197.252-.394.252.085-.084.169-.169.225-.253.056-.112.14-.196.112-.28-.028-.085-.112-.029-.196 0-.084.027-.056.168-.14.224-.029 0-.057.028-.085 0-.028-.056.028-.112.028-.14.028-.085.028-.253-.056-.253s-.168.056-.225.168c-.084-.084 0-.252-.14-.252-.168 0-.14.224-.14.365-.085-.113-.169-.337-.31-.281-.336.14-.224.533-.364.814 0-.168 0-.337-.028-.505 0-.028-.028-.056-.056-.028-.337.224-.281.617-.337.982-.056.478-.169.843-.337 1.32-.169.477-.646 1.123-.787 1.264a5.425 5.425 0 0 1-.786.617c-.365.225-.674.422-.954.759-.113.112-.225.252-.14.42.027.085.111-.027.14-.055.056.056.112.084.168.084.169 0 .14-.14.084-.253.085 0 .084.084.169.113.168.028.168-.14.224-.253 0 .028.028.028.056.028 0 .112 0 .253-.112.365-.056.056-.196-.084-.252.028 0 .028-.029.084.027.112.113.028.197-.084.281-.056.028.028-.028.113-.084.14-.084.057-.225.057-.28-.056-.141.056-.31 0-.478.029-.056 0-.14-.029-.168-.085-.31-.28-.31-.814-.281-.674.028.085-.113.14-.14.253-.029.112.112.056.168.197.028.112-.056.224-.028.252.196.14.224.337.056.506-.028.028.056.168 0 .196-.028.056-.028.113-.112.14.084.057.168.17.168.225l4.661 2.949c.112.084.225.084.337 0l.225-.674Zm-.112-9.407c.224-.225.365-.59.702-.73-.169.253-.365.477-.506.758-.028.028-.056.14.028.168.113.029.281-.056.365-.112.14-.084.337-.14.394-.252.168-.253.252-.478.337-.759.028-.112 0-.224-.14-.252-.282-.028-.563.084-.815.224a1.872 1.872 0 0 0-.702.702c-.056.085-.084.169 0 .281.112.14.28.056.337-.028Zm1.01-.028c-.14.084-.365.056-.393.28 0 .057-.028.141.028.141.14.028.225.113.31.197.168-.14.336-.45.252-.618a.24.24 0 0 0-.197 0Z"/><path fill="#112E51" d="M79.837 18.556c-.085.028-.169.112-.225.168.028.029.084.029.112.085.056.14-.14.449 0 .42.084-.027.225.029.309-.027.168-.084.45-.45.562-.786-.253-.14-.534.056-.758.14Zm1.039 1.124c.196-.197.337-.394.28-.506-.084-.14-.308-.113-.477-.113-.28.029-.365.197-.505.337.168.028.337.056.421.169.056.084-.056.196-.14.28.084.085.337-.084.42-.168Z"/><path fill="#112E51" d="M79.387 19.623c-.028.056.028.14.085.14.224 0 .393.113.59.113.084 0 .28-.253.28-.31.028-.168-.28-.14-.421-.14-.225-.028-.45 0-.534.197Zm.815.505c-.028-.168-.421-.224-.674-.252-.112 0-.197.14-.169.168.169.169.31.14.45.281.14.14.393-.112.393-.197Z"/><path fill="#112E51" d="M80.539 19.848c-.113 0-.31-.028-.337.112 0 .084.224.14.196.253-.056.14-.224.196-.337.28-.112.085.056.197.14.197.45-.028.871-.225 1.208-.533-.196-.281-.561-.337-.87-.31Zm-.955.505c-.084-.028-.169-.084-.225-.084-.056.028-.112.14-.084.169.168.14.309.224.45.365.027-.14.224-.057.196-.113 0-.196-.197-.253-.337-.337Zm-.056.758c.028-.224-.253-.393-.45-.477-.196-.112-.393.14-.28.197.168.084.056.224.336.308.14.056.394.056.394-.028Zm1.797-.224c-.084-.14-.253-.281-.421-.225-.225.028-.422.112-.646.225.224.084.28.309.421.365.197.084.365-.113.646-.253.028-.056 0-.084 0-.112Zm-.702.561c-.112-.168-.225-.365-.45-.477-.084-.056-.196 0-.28-.084l-.056.056c.028.084.14.14.084.224-.112.14-.337.057-.45.225.31.253.815.309 1.152.056Zm-1.909-.478c-.028.113-.057.254-.14.282-.057.056-.057.168-.113.253-.028.027 0 .056.028.056.28-.085.365-.45.393-.31-.028-.112-.056-.224-.168-.28Z"/><path fill="#112E51" d="M78.882 21.448c-.028.028 0 .056.028.056.112 0 .168.028.252-.028.113-.056.085-.196 0-.28-.056-.057-.112-.085-.168-.14-.056.083.056.168 0 .224-.028.056-.084.084-.112.168Zm.674-3.903c.112.028.28.084.309.169a.576.576 0 0 1-.028.561c-.029.028 0 .113.028.113.42-.31.477-.983.702-1.46.168-.394.393-.759.477-1.18.084-.393.084-.898-.112-1.263-.085-.14-.394.336-.478.505-.056.112-.168.253-.196.393a2.381 2.381 0 0 1-.31.73c-.111.225-.28.506-.392.702-.253.365-.478.562-.73.899.168-.028.533-.197.73-.169Zm.646.675c.14.168.337-.057.477.168.084.112-.028.337.056.365.506.168.393-.365.534-.646.309-.618.533-1.095.87-1.797.14-.253.393-.534.45-.815.112-.617.14-1.15-.085-1.74 0-.029-.056-.085-.084-.057-.365.393-.421.955-.702 1.432-.253.45-.534.815-.758 1.264-.253.674-.477 1.264-.758 1.825Zm3.228-1.405a.726.726 0 0 0-.196.309 6.38 6.38 0 0 1-.617 1.516c-.113.197-.281.365-.45.534-.252.253-.702.337-.87.561-.056.056.28.169.365.31.084.168-.225.224-.14.392.505-.084.954-.224 1.347-.561.31-.253.478-.59.534-.983.533-.477.983-1.01 1.432-1.6a6.424 6.424 0 0 0 1.095-2.19c.028-.141.196-.478.253-.59.056-.169-.028-.646-.057-.646-.28.196-.617.645-.814.954-.561.843-1.32 1.292-1.881 1.994Z"/><path fill="#112E51" d="M84.75 17.798c-.196.14-.954.814-1.066.983-.056.056-.113.112-.113.196a2.053 2.053 0 0 1-.674 1.067 2.542 2.542 0 0 1-1.488.59c-.028 0-.028.028-.056.056.084.056.056.253.14.225.843-.169 1.601-.393 2.331-.87.505-.338.758-1.012 1.236-1.377.842-.674 2.358-1.348 2.33-3.06 0-.028-.196.084-.28.168-.366.337-.871.927-1.292 1.236-.45.28-.674.477-1.067.786Z"/><path fill="#112E51" d="M85.761 19.764c.112-.085.197-.197.309-.253.253-.169.309-.31.505-.534 0-.028.085-.112.085-.112.337-.309.674-.87.87-1.264.028-.028-.028-.224-.084-.196-.309.056-.646.337-.814.45-.674.448-1.348.73-1.882 1.319-.393.45-.758.87-1.263 1.207-.253.169-.506.253-.787.365-.42.14-.814.281-1.263.365-.028 0-.028.085-.084.113-.028.028 0 .056.028.056.505.028.983-.028 1.488-.14.618-.141 1.207-.197 1.797-.394-1.095.45-2.302.618-3.51.702-.084 0-.225.113-.309.169.197.14.421.112.674.112.786 0 1.573-.084 2.33-.112-.308.168-.673.056-.954.252.309.057.309.422.505.394.618-.029 1.152-.057 1.741-.281a3.35 3.35 0 0 0 .562-.225c.225-.112.477-.225.618-.45a2.09 2.09 0 0 0 .112-.14c-.112-.14-.393-.168-.562-.112-.42.197-.842.253-1.291.365a.39.39 0 0 1-.253 0c.618-.196 1.264-.365 1.825-.814.337-.28 1.067-.758 1.236-1.18-.365-.112-1.124.281-1.489.338-.14.028-.308.14-.477.168.112-.028.225-.112.337-.168Zm-1.179 2.555c-.393.084-.758.056-1.123.112-.056 0-.478.112-.646.28.084.085.14.254.253.31.224.112.477.084.73.056.168-.028.337-.028.449-.169-.084-.056-.112-.14-.084-.168.196-.084.365-.084.477-.253.112-.112 0-.196-.056-.168Z"/><path fill="#112E51" d="M82.729 22.543c.14-.028.393-.056.393-.224 0-.225-.225-.393-.421-.421-.702-.085-1.376-.029-2.05-.169-.253.225-.59.197-.87.253.898.449 1.937.674 2.948.561Z"/><path fill="#112E51" d="M79.64 22.656s-.14-.085-.084-.085c.45.028.842.169 1.264.31.168.055.337.168.533.196.534.084 1.095.224 1.544 0-.084-.225-.224-.45-.477-.45-.955.029-1.937-.14-2.78-.59-.365.057-.196.984-.168 1.04.112.224.42.28.59.45-.253-.057-.703-.422-.703 0 0 .111.085.28.14.364.282.393.619.674 1.068.927.309.168.59.365.955.252.112-.028.056-.224.028-.308-.057-.085-.197-.057-.31-.085-.701-.168-1.235-.645-1.768-1.123.365.169.617.45.983.674.365.225.758.421 1.207.28.168-.055.056-.308-.056-.336a7.79 7.79 0 0 0-.45-.169 1.824 1.824 0 0 1-.617-.308c.449.084.87.393 1.376.28 0-.252-.197-.393-.337-.533-.562-.45-1.264-.618-1.938-.786Z"/><path fill="#112E51" d="M83.178 23.105c-.056 0-.028.14-.084.168-.253.14-.561.057-.842.057-.169 0-.337-.028-.506-.056-.028 0-.056.027-.028.056.028.028.393.393.31.561-.085.14-.113.253.055.281.14.028.337 0 .365-.112.028-.169-.084-.337-.196-.45.084.057.196.085.28.113.113.028.197.028.31.028.28 0 .477-.084.814-.14-.056-.281-.225-.506-.478-.506Zm-2.92 1.488c-.31-.224-.534-.533-.843-.758-.028.056-.112.028-.14.056-.112.112 0 .253.028.337.112.28.393.45.618.646.196.168.421.28.674.421.168.112.337.14.505.084.084-.028.084-.168.028-.224-.252-.225-.59-.337-.87-.562Zm-.421.337c-.225-.168-.365-.393-.562-.561-.028.056-.112 0-.14.056-.113.14-.056.365.028.477a2.68 2.68 0 0 0 1.151.87c.112.057.309.085.393.029.056-.056-.056-.197-.112-.253-.253-.253-.477-.393-.758-.618Zm-.197.646c-.253-.197-.421-.421-.646-.646 0-.028-.056-.028-.084 0-.084.113-.14.281-.084.365.309.478.786 1.067 1.348 1.067.112 0 .084-.309.028-.365-.113-.196-.365-.28-.562-.42Z"/><path fill="#112E51" d="M79.556 26.25c-.28-.337-.562-.618-.843-.955-.056-.056-.196-.112-.224-.028a.358.358 0 0 0 0 .337c.393.45.646.87 1.151 1.151.056.028.14.028.197-.028.14-.168-.169-.309-.281-.477Zm-.646.056c-.197-.197-.393-.393-.534-.59-.028-.056-.224-.028-.196.056.28.534.646.899 1.067 1.32.028.028.14.028.168.028.085 0 .057-.168.029-.224-.197-.225-.337-.393-.534-.59Zm.196-4.576c-.224-.029-.196-.085-.393-.085-.084 0-.224-.056-.28.056-.029.056-.085.253-.14.28-.057.029-.029.45 0 .478.14.253.364.337.617.337.084 0 .253 0 .309-.112.056-.113-.028-.14-.112-.14h.028c.084-.057.028-.197 0-.281-.085-.197-.31 0-.422-.169.197 0 .45 0 .562-.14.084-.085-.056-.225-.169-.225Z"/><path fill="#112E51" d="M79.107 23.666c.112-.056.028-.196 0-.252-.112-.14-.337-.056-.478-.14-.056-.057-.168-.057-.224-.141-.028-.028-.14-.084-.084-.084.252.028.533.252.786.084.056-.028.056-.168-.028-.197-.169-.028-.337-.056-.478-.14a.797.797 0 0 1-.28-.253c-.085-.056-.197 0-.169.056.028.085-.084.337-.084.366.056.112-.028.196.028.28.056.056.084.14.14.169.113.028.197.14.31.14.168.056.364.197.56.113Zm-.141.394c-.112-.14-.337-.085-.505-.169-.169-.084-.309-.224-.45-.337-.084-.084-.14.14-.084.225-.112-.169.87.477.899.477.168 0 .225-.14.14-.196Z"/><path fill="#112E51" d="M78.854 24.509c.168-.253-.225-.309-.421-.365-.281-.112-.337-.253-.534-.393-.028-.028-.056.056-.084.056.168.14-.028.253.056.337.197.309.814.618.983.365Z"/><path fill="#112E51" d="M78.573 24.762c-.056-.085-.169-.085-.253-.113a1.049 1.049 0 0 1-.421-.365c-.084-.112-.28-.028-.28 0 .224.31.645.674.982.646.084 0 0-.112-.028-.168Zm-1.039-.141c-.14.113-.197-.028-.225.056-.224.365.45.787.702.87.169.057.225-.14.169-.28-.056-.197-.478-.786-.646-.646Zm3.706-5.756c.169.225.113.505-.084.73-.028.028 0 .056.028.056.365-.14.618-.393.899-.646.14-.112.28-.28.365-.42a6.64 6.64 0 0 0 .533-.984 1.52 1.52 0 0 0 .113-.42c0-.085.056-.282.112-.366.337-.421.73-.674.87-1.18.225-.757.45-1.909 0-2.582-.056.056-.112.112-.168.196-.14.253-.309.786-.393 1.039a4.945 4.945 0 0 1-.786 1.376 2.689 2.689 0 0 0-.394.59c-.42.842-.758 1.712-1.095 2.611Zm-4.773 5.785c-.028.027-.112.084-.084.112.028.14 0 .337.14.365.112 0 .112-.618.112-.337-.028-.113-.14-.084-.168-.14Z"/><path fill="#fff" d="M75.007 25.351c.084 0 .14-.056.168-.14.029-.028 0-.028-.028-.056s0-.056 0-.056c.113.056.169-.028.225-.113v.085c.028.056.112.084.112.14 0 .112-.112.197-.224.14-.028.253-.337.281-.562.225 0 0-.084.056-.112.084-.112.028-.253.056-.337-.056-.056-.084 0-.112.056-.168 0 .028.028.056.028.056.028 0 .056.028.084 0 .056-.056.085-.113.14-.169.029-.056.085.056.141.056.14 0 .225 0 .309-.028Z"/></g><defs><clipPath id="a"><path fill="#fff" d="M0 0h200v50H0z"/></clipPath></defs></svg>